<svg xmlns="http://www.w3.org/2000/svg" xmlns:xlink="http://www.w3.org/1999/xlink" xmlns:lucid="lucid" width="1080" height="840"><g transform="translate(20 -40)" lucid:page-tab-id="0_0"><path d="M380 207.33a6 6 0 0 1 6-6h148a6 6 0 0 1 6 6v108a6 6 0 0 1-6 6H386a6 6 0 0 1-6-6z" stroke="#3a414a" fill="#fff"/><path d="M400 226a6 6 0 0 1 6-6h148a6 6 0 0 1 6 6v108a6 6 0 0 1-6 6H406a6 6 0 0 1-6-6z" stroke="#3a414a" fill="#fff"/><path d="M420 66a6 6 0 0 1 6-6h132a6 6 0 0 1 6 6v96c-24.05-17.03-39.02-17.03-48.1-17.03-14.4 0-33.55 17.03-47.95 17.03-8.93 0-24.05 0-47.95-17.03z" stroke="#008573" fill="#fff"/><path d="M428 75a6 6 0 0 1 6-6h132a6 6 0 0 1 6 6v96c-24.05-17.03-39.02-17.03-48.1-17.03-14.4 0-33.55 17.03-47.95 17.03-8.93 0-24.05 0-47.95-17.03z" stroke="#008573" fill="#fff"/><path d="M436 84a6 6 0 0 1 6-6h132a6 6 0 0 1 6 6v96c-24.05-17.03-39.02-17.03-48.1-17.03-14.4 0-33.55 17.03-47.95 17.03-8.93 0-24.05 0-47.95-17.03z" stroke="#008573" fill="#fff"/><use xlink:href="#a" transform="matrix(1,0,0,1,441,83) translate(9.771604938271608 41.21527777777778)"/><use xlink:href="#b" transform="matrix(1,0,0,1,441,83) translate(87.3641975308642 41.21527777777778)"/><path d="M420 246a6 6 0 0 1 6-6h148a6 6 0 0 1 6 6v108a6 6 0 0 1-6 6H426a6 6 0 0 1-6-6z" stroke="#3a414a" fill="#fff"/><use xlink:href="#c" transform="matrix(1,0,0,1,432,252) translate(42.72222222222223 53.77777777777778)"/><path d="M0 466a6 6 0 0 1 6-6h148a6 6 0 0 1 6 6v108a6 6 0 0 1-6 6H6a6 6 0 0 1-6-6z" stroke="#3a414a" fill="#fff"/><use xlink:href="#d" transform="matrix(1,0,0,1,12,472) translate(27.999999999999993 53.77777777777778)"/><path d="M220 466a6 6 0 0 1 6-6h148a6 6 0 0 1 6 6v108a6 6 0 0 1-6 6H226a6 6 0 0 1-6-6z" stroke="#3a414a" fill="#fff"/><use xlink:href="#e" transform="matrix(1,0,0,1,232,472) translate(16.796296296296298 25.77777777777778)"/><use xlink:href="#f" transform="matrix(1,0,0,1,232,472) translate(-1.6913580246913682 52.44444444444445)"/><use xlink:href="#g" transform="matrix(1,0,0,1,232,472) translate(43.925925925925924 79.11111111111111)"/><path d="M420 466a6 6 0 0 1 6-6h148a6 6 0 0 1 6 6v108a6 6 0 0 1-6 6H426a6 6 0 0 1-6-6z" stroke="#3a414a" fill="#fff"/><use xlink:href="#e" transform="matrix(1,0,0,1,432,472) translate(16.796296296296298 25.77777777777778)"/><use xlink:href="#f" transform="matrix(1,0,0,1,432,472) translate(-1.6913580246913682 52.44444444444445)"/><use xlink:href="#h" transform="matrix(1,0,0,1,432,472) translate(43.925925925925924 79.11111111111111)"/><path d="M660 466a6 6 0 0 1 6-6h148a6 6 0 0 1 6 6v108a6 6 0 0 1-6 6H666a6 6 0 0 1-6-6z" stroke="#3a414a" fill="#fff"/><use xlink:href="#e" transform="matrix(1,0,0,1,672,472) translate(16.796296296296298 25.77777777777778)"/><use xlink:href="#f" transform="matrix(1,0,0,1,672,472) translate(-1.6913580246913682 52.44444444444445)"/><use xlink:href="#i" transform="matrix(1,0,0,1,672,472) translate(47.01234567901234 79.11111111111111)"/><path d="M880 466a6 6 0 0 1 6-6h148a6 6 0 0 1 6 6v108a6 6 0 0 1-6 6H886a6 6 0 0 1-6-6z" stroke="#3a414a" fill="#fff"/><use xlink:href="#e" transform="matrix(1,0,0,1,892,472) translate(16.796296296296298 38.77777777777778)"/><use xlink:href="#j" transform="matrix(1,0,0,1,892,472) translate(44.604938271604944 65.44444444444446)"/><path d="M500 175.98v47.17" stroke="#3a414a" fill="none"/><path d="M500.5 176h-1v-.3l1-.45z" stroke="#3a414a" stroke-width=".05" fill="#3a414a"/><path d="M500 237.92l-4.63-14.27h9.26z" stroke="#3a414a" fill="#3a414a"/><path d="M500 360.96V404a6 6 0 0 1-6 6H86a6 6 0 0 0-6 6v27.15" stroke="#3a414a" fill="none"/><path d="M500.5 360.98h-1v-.52h1z" stroke="#3a414a" stroke-width=".05" fill="#3a414a"/><path d="M80 457.92l-4.64-14.27h9.28z" stroke="#3a414a" fill="#3a414a"/><path d="M500 360.96V404a6 6 0 0 1-6 6H306a6 6 0 0 0-6 6v27.15" stroke="#3a414a" fill="none"/><path d="M500.5 360.98h-1v-.52h1z" stroke="#3a414a" stroke-width=".05" fill="#3a414a"/><path d="M300 457.92l-4.63-14.27h9.26z" stroke="#3a414a" fill="#3a414a"/><path d="M500 360.96v82.2" stroke="#3a414a" fill="none"/><path d="M500.5 360.98h-1v-.52h1z" stroke="#3a414a" stroke-width=".05" fill="#3a414a"/><path d="M500 457.92l-4.63-14.27h9.26z" stroke="#3a414a" fill="#3a414a"/><path d="M500 360.96V404a6 6 0 0 0 6 6h228a6 6 0 0 1 6 6v27.15" stroke="#3a414a" fill="none"/><path d="M500.5 360.98h-1v-.52h1z" stroke="#3a414a" stroke-width=".05" fill="#3a414a"/><path d="M740 457.92l-4.63-14.27h9.26z" stroke="#3a414a" fill="#3a414a"/><path d="M500 360.96V404a6 6 0 0 0 6 6h448a6 6 0 0 1 6 6v27.15" stroke="#3a414a" fill="none"/><path d="M500.5 360.98h-1v-.52h1z" stroke="#3a414a" stroke-width=".05" fill="#3a414a"/><path d="M960 457.92l-4.63-14.27h9.26z" stroke="#3a414a" fill="#3a414a"/><path d="M0 746a6 6 0 0 1 6-6h148a6 6 0 0 1 6 6v114c-26.72-20.04-43.36-20.04-53.44-20.04-16 0-37.28 20.04-53.28 20.04-9.92 0-26.72 0-53.28-20.04z" stroke="#1071e5" fill="#edf5ff"/><use xlink:href="#k" transform="matrix(1,0,0,1,5,745) translate(10.987654320987644 48.71527777777778)"/><use xlink:href="#l" transform="matrix(1,0,0,1,5,745) translate(97.1604938271605 48.71527777777778)"/><path d="M220 746a6 6 0 0 1 6-6h148a6 6 0 0 1 6 6v114c-26.72-20.04-43.36-20.04-53.44-20.04-16 0-37.28 20.04-53.28 20.04-9.92 0-26.72 0-53.28-20.04z" stroke="#1071e5" fill="#edf5ff"/><use xlink:href="#m" transform="matrix(1,0,0,1,225,745) translate(5.308641975308632 37.46527777777778)"/><use xlink:href="#n" transform="matrix(1,0,0,1,225,745) translate(33.641975308641975 64.13194444444446)"/><use xlink:href="#o" transform="matrix(1,0,0,1,225,745) translate(87.96296296296296 64.13194444444446)"/><path d="M420 746a6 6 0 0 1 6-6h148a6 6 0 0 1 6 6v114c-26.72-20.04-43.36-20.04-53.44-20.04-16 0-37.28 20.04-53.28 20.04-9.92 0-26.72 0-53.28-20.04z" stroke="#1071e5" fill="#edf5ff"/><use xlink:href="#m" transform="matrix(1,0,0,1,425,745) translate(5.308641975308632 37.46527777777778)"/><use xlink:href="#p" transform="matrix(1,0,0,1,425,745) translate(33.641975308641975 64.13194444444446)"/><use xlink:href="#o" transform="matrix(1,0,0,1,425,745) translate(87.96296296296296 64.13194444444446)"/><path d="M660 746a6 6 0 0 1 6-6h148a6 6 0 0 1 6 6v114c-26.72-20.04-43.36-20.04-53.44-20.04-16 0-37.28 20.04-53.28 20.04-9.92 0-26.72 0-53.28-20.04z" stroke="#1071e5" fill="#edf5ff"/><use xlink:href="#m" transform="matrix(1,0,0,1,665,745) translate(5.308641975308632 37.46527777777778)"/><use xlink:href="#q" transform="matrix(1,0,0,1,665,745) translate(36.72839506172839 64.13194444444446)"/><use xlink:href="#o" transform="matrix(1,0,0,1,665,745) translate(84.87654320987654 64.13194444444446)"/><path d="M880 746a6 6 0 0 1 6-6h148a6 6 0 0 1 6 6v114c-26.72-20.04-43.36-20.04-53.44-20.04-16 0-37.28 20.04-53.28 20.04-9.92 0-26.72 0-53.28-20.04z" stroke="#1071e5" fill="#edf5ff"/><use xlink:href="#r" transform="matrix(1,0,0,1,885,745) translate(34.320987654320994 48.71527777777778)"/><use xlink:href="#o" transform="matrix(1,0,0,1,885,745) translate(87.28395061728395 48.71527777777778)"/><path d="M80 580.96v142.19" stroke="#3a414a" fill="none"/><path d="M80.5 580.98h-1v-.52h1z" stroke="#3a414a" stroke-width=".05" fill="#3a414a"/><path d="M80 737.92l-4.64-14.27h9.28z" stroke="#3a414a" fill="#3a414a"/><path d="M300 580.96v142.2" stroke="#3a414a" fill="none"/><path d="M300.5 580.98h-1v-.52h1z" stroke="#3a414a" stroke-width=".05" fill="#3a414a"/><path d="M300 737.92l-4.63-14.27h9.26z" stroke="#3a414a" fill="#3a414a"/><path d="M500 580.96v142.2" stroke="#3a414a" fill="none"/><path d="M500.5 580.98h-1v-.52h1z" stroke="#3a414a" stroke-width=".05" fill="#3a414a"/><path d="M500 737.92l-4.63-14.27h9.26z" stroke="#3a414a" fill="#3a414a"/><path d="M740 580.96v142.2" stroke="#3a414a" fill="none"/><path d="M740.5 580.98h-1v-.52h1z" stroke="#3a414a" stroke-width=".05" fill="#3a414a"/><path d="M740 737.92l-4.63-14.27h9.26z" stroke="#3a414a" fill="#3a414a"/><path d="M960 580.96v142.2" stroke="#3a414a" fill="none"/><path d="M960.5 580.98h-1v-.52h1z" stroke="#3a414a" stroke-width=".05" fill="#3a414a"/><path d="M960 737.92l-4.63-14.27h9.26z" stroke="#3a414a" fill="#3a414a"/><defs><path fill="#008a0e" d="M210-169c-67 3-38 105-44 169h-31v-121c0-29-5-50-35-48C34-165 62-65 56 0H25l-1-190h30c1 10-1 24 2 32 10-44 99-50 107 0 11-21 27-35 58-36 85-2 47 119 55 194h-31v-121c0-29-5-49-35-48" id="s"/><path fill="#008a0e" d="M100-194c63 0 86 42 84 106H49c0 40 14 67 53 68 26 1 43-12 49-29l28 8c-11 28-37 45-77 45C44 4 14-33 15-96c1-61 26-98 85-98zm52 81c6-60-76-77-97-28-3 7-6 17-6 28h103" id="t"/><path fill="#008a0e" d="M59-47c-2 24 18 29 38 22v24C64 9 27 4 27-40v-127H5v-23h24l9-43h21v43h35v23H59v120" id="u"/><path fill="#008a0e" d="M114-163C36-179 61-72 57 0H25l-1-190h30c1 12-1 29 2 39 6-27 23-49 58-41v29" id="v"/><path fill="#008a0e" d="M24-231v-30h32v30H24zM24 0v-190h32V0H24" id="w"/><path fill="#008a0e" d="M96-169c-40 0-48 33-48 73s9 75 48 75c24 0 41-14 43-38l32 2c-6 37-31 61-74 61-59 0-76-41-82-99-10-93 101-131 147-64 4 7 5 14 7 22l-32 3c-4-21-16-35-41-35" id="x"/><path fill="#008a0e" d="M135-143c-3-34-86-38-87 0 15 53 115 12 119 90S17 21 10-45l28-5c4 36 97 45 98 0-10-56-113-15-118-90-4-57 82-63 122-42 12 7 21 19 24 35" id="y"/><g id="a"><use transform="matrix(0.06172839506172839,0,0,0.06172839506172839,0,0)" xlink:href="#s"/><use transform="matrix(0.06172839506172839,0,0,0.06172839506172839,18.456790123456788,0)" xlink:href="#t"/><use transform="matrix(0.06172839506172839,0,0,0.06172839506172839,30.80246913580247,0)" xlink:href="#u"/><use transform="matrix(0.06172839506172839,0,0,0.06172839506172839,36.97530864197531,0)" xlink:href="#v"/><use transform="matrix(0.06172839506172839,0,0,0.06172839506172839,44.32098765432099,0)" xlink:href="#w"/><use transform="matrix(0.06172839506172839,0,0,0.06172839506172839,49.19753086419753,0)" xlink:href="#x"/><use transform="matrix(0.06172839506172839,0,0,0.06172839506172839,60.308641975308646,0)" xlink:href="#y"/></g><path fill="#008a0e" d="M141-36C126-15 110 5 73 4 37 3 15-17 15-53c-1-64 63-63 125-63 3-35-9-54-41-54-24 1-41 7-42 31l-33-3c5-37 33-52 76-52 45 0 72 20 72 64v82c-1 20 7 32 28 27v20c-31 9-61-2-59-35zM48-53c0 20 12 33 32 33 41-3 63-29 60-74-43 2-92-5-92 41" id="z"/><g id="b"><use transform="matrix(0.06172839506172839,0,0,0.06172839506172839,0,0)" xlink:href="#u"/><use transform="matrix(0.06172839506172839,0,0,0.06172839506172839,6.172839506172839,0)" xlink:href="#z"/><use transform="matrix(0.06172839506172839,0,0,0.06172839506172839,18.51851851851852,0)" xlink:href="#v"/></g><path fill="#3a414a" d="M84 4C-5 8 30-112 23-190h32v120c0 31 7 50 39 49 72-2 45-101 50-169h31l1 190h-30c-1-10 1-25-2-33-11 22-28 36-60 37" id="A"/><path fill="#3a414a" d="M117-194c89-4 53 116 60 194h-32v-121c0-31-8-49-39-48C34-167 62-67 57 0H25l-1-190h30c1 10-1 24 2 32 11-22 29-35 61-36" id="B"/><path fill="#3a414a" d="M59-47c-2 24 18 29 38 22v24C64 9 27 4 27-40v-127H5v-23h24l9-43h21v43h35v23H59v120" id="C"/><path fill="#3a414a" d="M141-36C126-15 110 5 73 4 37 3 15-17 15-53c-1-64 63-63 125-63 3-35-9-54-41-54-24 1-41 7-42 31l-33-3c5-37 33-52 76-52 45 0 72 20 72 64v82c-1 20 7 32 28 27v20c-31 9-61-2-59-35zM48-53c0 20 12 33 32 33 41-3 63-29 60-74-43 2-92-5-92 41" id="D"/><path fill="#3a414a" d="M114-163C36-179 61-72 57 0H25l-1-190h30c1 12-1 29 2 39 6-27 23-49 58-41v29" id="E"/><g id="c"><use transform="matrix(0.06172839506172839,0,0,0.06172839506172839,0,0)" xlink:href="#A"/><use transform="matrix(0.06172839506172839,0,0,0.06172839506172839,12.345679012345679,0)" xlink:href="#B"/><use transform="matrix(0.06172839506172839,0,0,0.06172839506172839,24.691358024691358,0)" xlink:href="#C"/><use transform="matrix(0.06172839506172839,0,0,0.06172839506172839,30.864197530864196,0)" xlink:href="#D"/><use transform="matrix(0.06172839506172839,0,0,0.06172839506172839,43.20987654320987,0)" xlink:href="#E"/></g><path fill="#3a414a" d="M240 0l2-218c-23 76-54 145-80 218h-23L58-218 59 0H30v-248h44l77 211c21-75 51-140 76-211h43V0h-30" id="F"/><path fill="#3a414a" d="M24 0v-261h32V0H24" id="G"/><path fill="#3a414a" d="M24-231v-30h32v30H24zM24 0v-190h32V0H24" id="H"/><path fill="#3a414a" d="M140-251c81 0 123 46 123 126C263-53 228-8 163 1c7 30 30 48 69 40v23c-55 16-95-15-103-61C56-3 17-48 17-125c0-80 42-126 123-126zm0 227c63 0 89-41 89-101s-29-99-89-99c-61 0-89 39-89 99S79-25 140-24" id="I"/><path fill="#3a414a" d="M212-179c-10-28-35-45-73-45-59 0-87 40-87 99 0 60 29 101 89 101 43 0 62-24 78-52l27 14C228-24 195 4 139 4 59 4 22-46 18-125c-6-104 99-153 187-111 19 9 31 26 39 46" id="J"/><g id="d"><use transform="matrix(0.06172839506172839,0,0,0.06172839506172839,0,0)" xlink:href="#F"/><use transform="matrix(0.06172839506172839,0,0,0.06172839506172839,18.456790123456788,0)" xlink:href="#A"/><use transform="matrix(0.06172839506172839,0,0,0.06172839506172839,30.80246913580247,0)" xlink:href="#G"/><use transform="matrix(0.06172839506172839,0,0,0.06172839506172839,35.67901234567901,0)" xlink:href="#C"/><use transform="matrix(0.06172839506172839,0,0,0.06172839506172839,41.851851851851855,0)" xlink:href="#H"/><use transform="matrix(0.06172839506172839,0,0,0.06172839506172839,46.7283950617284,0)" xlink:href="#I"/><use transform="matrix(0.06172839506172839,0,0,0.06172839506172839,64.01234567901236,0)" xlink:href="#J"/></g><path fill="#3a414a" d="M205 0l-28-72H64L36 0H1l101-248h38L239 0h-34zm-38-99l-47-123c-12 45-31 82-46 123h93" id="K"/><path fill="#3a414a" d="M177-190C167-65 218 103 67 71c-23-6-38-20-44-43l32-5c15 47 100 32 89-28v-30C133-14 115 1 83 1 29 1 15-40 15-95c0-56 16-97 71-98 29-1 48 16 59 35 1-10 0-23 2-32h30zM94-22c36 0 50-32 50-73 0-42-14-75-50-75-39 0-46 34-46 75s6 73 46 73" id="L"/><path fill="#3a414a" d="M100-194c63 0 86 42 84 106H49c0 40 14 67 53 68 26 1 43-12 49-29l28 8c-11 28-37 45-77 45C44 4 14-33 15-96c1-61 26-98 85-98zm52 81c6-60-76-77-97-28-3 7-6 17-6 28h103" id="M"/><g id="e"><use transform="matrix(0.06172839506172839,0,0,0.06172839506172839,0,0)" xlink:href="#K"/><use transform="matrix(0.06172839506172839,0,0,0.06172839506172839,14.814814814814813,0)" xlink:href="#L"/><use transform="matrix(0.06172839506172839,0,0,0.06172839506172839,27.160493827160494,0)" xlink:href="#L"/><use transform="matrix(0.06172839506172839,0,0,0.06172839506172839,39.50617283950617,0)" xlink:href="#E"/><use transform="matrix(0.06172839506172839,0,0,0.06172839506172839,46.85185185185185,0)" xlink:href="#M"/><use transform="matrix(0.06172839506172839,0,0,0.06172839506172839,59.197530864197525,0)" xlink:href="#L"/><use transform="matrix(0.06172839506172839,0,0,0.06172839506172839,71.5432098765432,0)" xlink:href="#D"/><use transform="matrix(0.06172839506172839,0,0,0.06172839506172839,83.88888888888889,0)" xlink:href="#C"/><use transform="matrix(0.06172839506172839,0,0,0.06172839506172839,90.06172839506172,0)" xlink:href="#M"/></g><path fill="#3a414a" d="M101-234c-31-9-42 10-38 44h38v23H63V0H32v-167H5v-23h27c-7-52 17-82 69-68v24" id="N"/><path fill="#3a414a" d="M100-194c62-1 85 37 85 99 1 63-27 99-86 99S16-35 15-95c0-66 28-99 85-99zM99-20c44 1 53-31 53-75 0-43-8-75-51-75s-53 32-53 75 10 74 51 75" id="O"/><path fill="#3a414a" d="M135-143c-3-34-86-38-87 0 15 53 115 12 119 90S17 21 10-45l28-5c4 36 97 45 98 0-10-56-113-15-118-90-4-57 82-63 122-42 12 7 21 19 24 35" id="P"/><g id="f"><use transform="matrix(0.06172839506172839,0,0,0.06172839506172839,0,0)" xlink:href="#N"/><use transform="matrix(0.06172839506172839,0,0,0.06172839506172839,6.172839506172839,0)" xlink:href="#M"/><use transform="matrix(0.06172839506172839,0,0,0.06172839506172839,18.51851851851852,0)" xlink:href="#D"/><use transform="matrix(0.06172839506172839,0,0,0.06172839506172839,30.864197530864196,0)" xlink:href="#C"/><use transform="matrix(0.06172839506172839,0,0,0.06172839506172839,37.03703703703704,0)" xlink:href="#A"/><use transform="matrix(0.06172839506172839,0,0,0.06172839506172839,49.382716049382715,0)" xlink:href="#E"/><use transform="matrix(0.06172839506172839,0,0,0.06172839506172839,56.72839506172839,0)" xlink:href="#M"/><use transform="matrix(0.06172839506172839,0,0,0.06172839506172839,69.07407407407408,0)" xlink:href="#J"/><use transform="matrix(0.06172839506172839,0,0,0.06172839506172839,85.06172839506173,0)" xlink:href="#O"/><use transform="matrix(0.06172839506172839,0,0,0.06172839506172839,97.40740740740742,0)" xlink:href="#A"/><use transform="matrix(0.06172839506172839,0,0,0.06172839506172839,109.7530864197531,0)" xlink:href="#B"/><use transform="matrix(0.06172839506172839,0,0,0.06172839506172839,122.09876543209879,0)" xlink:href="#C"/><use transform="matrix(0.06172839506172839,0,0,0.06172839506172839,128.27160493827162,0)" xlink:href="#P"/></g><g id="g"><use transform="matrix(0.06172839506172839,0,0,0.06172839506172839,0,0)" xlink:href="#M"/><use transform="matrix(0.06172839506172839,0,0,0.06172839506172839,12.345679012345679,0)" xlink:href="#B"/><use transform="matrix(0.06172839506172839,0,0,0.06172839506172839,24.691358024691358,0)" xlink:href="#P"/><use transform="matrix(0.06172839506172839,0,0,0.06172839506172839,35.80246913580247,0)" xlink:href="#M"/></g><g id="h"><use transform="matrix(0.06172839506172839,0,0,0.06172839506172839,0,0)" xlink:href="#M"/><use transform="matrix(0.06172839506172839,0,0,0.06172839506172839,12.345679012345679,0)" xlink:href="#B"/><use transform="matrix(0.06172839506172839,0,0,0.06172839506172839,24.691358024691358,0)" xlink:href="#P"/><use transform="matrix(0.06172839506172839,0,0,0.06172839506172839,35.80246913580247,0)" xlink:href="#L"/></g><g id="i"><use transform="matrix(0.06172839506172839,0,0,0.06172839506172839,0,0)" xlink:href="#M"/><use transform="matrix(0.06172839506172839,0,0,0.06172839506172839,12.345679012345679,0)" xlink:href="#B"/><use transform="matrix(0.06172839506172839,0,0,0.06172839506172839,24.691358024691358,0)" xlink:href="#P"/><use transform="matrix(0.06172839506172839,0,0,0.06172839506172839,35.80246913580247,0)" xlink:href="#C"/></g><path fill="#3a414a" d="M127-220V0H93v-220H8v-28h204v28h-85" id="Q"/><path fill="#3a414a" d="M30-248c87 1 191-15 191 75 0 78-77 80-158 76V0H30v-248zm33 125c57 0 124 11 124-50 0-59-68-47-124-48v98" id="R"/><g id="j"><use transform="matrix(0.06172839506172839,0,0,0.06172839506172839,0,0)" xlink:href="#Q"/><use transform="matrix(0.06172839506172839,0,0,0.06172839506172839,13.518518518518517,0)" xlink:href="#R"/><use transform="matrix(0.06172839506172839,0,0,0.06172839506172839,28.33333333333333,0)" xlink:href="#F"/></g><path fill="#1071e5" d="M240 0l2-218c-23 76-54 145-80 218h-23L58-218 59 0H30v-248h44l77 211c21-75 51-140 76-211h43V0h-30" id="S"/><path fill="#1071e5" d="M84 4C-5 8 30-112 23-190h32v120c0 31 7 50 39 49 72-2 45-101 50-169h31l1 190h-30c-1-10 1-25-2-33-11 22-28 36-60 37" id="T"/><path fill="#1071e5" d="M24 0v-261h32V0H24" id="U"/><path fill="#1071e5" d="M59-47c-2 24 18 29 38 22v24C64 9 27 4 27-40v-127H5v-23h24l9-43h21v43h35v23H59v120" id="V"/><path fill="#1071e5" d="M24-231v-30h32v30H24zM24 0v-190h32V0H24" id="W"/><path fill="#1071e5" d="M140-251c81 0 123 46 123 126C263-53 228-8 163 1c7 30 30 48 69 40v23c-55 16-95-15-103-61C56-3 17-48 17-125c0-80 42-126 123-126zm0 227c63 0 89-41 89-101s-29-99-89-99c-61 0-89 39-89 99S79-25 140-24" id="X"/><path fill="#1071e5" d="M212-179c-10-28-35-45-73-45-59 0-87 40-87 99 0 60 29 101 89 101 43 0 62-24 78-52l27 14C228-24 195 4 139 4 59 4 22-46 18-125c-6-104 99-153 187-111 19 9 31 26 39 46" id="Y"/><g id="k"><use transform="matrix(0.06172839506172839,0,0,0.06172839506172839,0,0)" xlink:href="#S"/><use transform="matrix(0.06172839506172839,0,0,0.06172839506172839,18.456790123456788,0)" xlink:href="#T"/><use transform="matrix(0.06172839506172839,0,0,0.06172839506172839,30.80246913580247,0)" xlink:href="#U"/><use transform="matrix(0.06172839506172839,0,0,0.06172839506172839,35.67901234567901,0)" xlink:href="#V"/><use transform="matrix(0.06172839506172839,0,0,0.06172839506172839,41.851851851851855,0)" xlink:href="#W"/><use transform="matrix(0.06172839506172839,0,0,0.06172839506172839,46.7283950617284,0)" xlink:href="#X"/><use transform="matrix(0.06172839506172839,0,0,0.06172839506172839,64.01234567901236,0)" xlink:href="#Y"/></g><path fill="#1071e5" d="M106-169C34-169 62-67 57 0H25v-261h32l-1 103c12-21 28-36 61-36 89 0 53 116 60 194h-32v-121c2-32-8-49-39-48" id="Z"/><path fill="#1071e5" d="M210-169c-67 3-38 105-44 169h-31v-121c0-29-5-50-35-48C34-165 62-65 56 0H25l-1-190h30c1 10-1 24 2 32 10-44 99-50 107 0 11-21 27-35 58-36 85-2 47 119 55 194h-31v-121c0-29-5-49-35-48" id="aa"/><g id="l"><use transform="matrix(0.06172839506172839,0,0,0.06172839506172839,0,0)" xlink:href="#Z"/><use transform="matrix(0.06172839506172839,0,0,0.06172839506172839,12.345679012345679,0)" xlink:href="#V"/><use transform="matrix(0.06172839506172839,0,0,0.06172839506172839,18.51851851851852,0)" xlink:href="#aa"/><use transform="matrix(0.06172839506172839,0,0,0.06172839506172839,36.9753086419753,0)" xlink:href="#U"/></g><path fill="#1071e5" d="M101-234c-31-9-42 10-38 44h38v23H63V0H32v-167H5v-23h27c-7-52 17-82 69-68v24" id="ab"/><path fill="#1071e5" d="M100-194c63 0 86 42 84 106H49c0 40 14 67 53 68 26 1 43-12 49-29l28 8c-11 28-37 45-77 45C44 4 14-33 15-96c1-61 26-98 85-98zm52 81c6-60-76-77-97-28-3 7-6 17-6 28h103" id="ac"/><path fill="#1071e5" d="M141-36C126-15 110 5 73 4 37 3 15-17 15-53c-1-64 63-63 125-63 3-35-9-54-41-54-24 1-41 7-42 31l-33-3c5-37 33-52 76-52 45 0 72 20 72 64v82c-1 20 7 32 28 27v20c-31 9-61-2-59-35zM48-53c0 20 12 33 32 33 41-3 63-29 60-74-43 2-92-5-92 41" id="ad"/><path fill="#1071e5" d="M114-163C36-179 61-72 57 0H25l-1-190h30c1 12-1 29 2 39 6-27 23-49 58-41v29" id="ae"/><path fill="#1071e5" d="M100-194c62-1 85 37 85 99 1 63-27 99-86 99S16-35 15-95c0-66 28-99 85-99zM99-20c44 1 53-31 53-75 0-43-8-75-51-75s-53 32-53 75 10 74 51 75" id="af"/><path fill="#1071e5" d="M117-194c89-4 53 116 60 194h-32v-121c0-31-8-49-39-48C34-167 62-67 57 0H25l-1-190h30c1 10-1 24 2 32 11-22 29-35 61-36" id="ag"/><path fill="#1071e5" d="M135-143c-3-34-86-38-87 0 15 53 115 12 119 90S17 21 10-45l28-5c4 36 97 45 98 0-10-56-113-15-118-90-4-57 82-63 122-42 12 7 21 19 24 35" id="ah"/><g id="m"><use transform="matrix(0.06172839506172839,0,0,0.06172839506172839,0,0)" xlink:href="#ab"/><use transform="matrix(0.06172839506172839,0,0,0.06172839506172839,6.172839506172839,0)" xlink:href="#ac"/><use transform="matrix(0.06172839506172839,0,0,0.06172839506172839,18.51851851851852,0)" xlink:href="#ad"/><use transform="matrix(0.06172839506172839,0,0,0.06172839506172839,30.864197530864196,0)" xlink:href="#V"/><use transform="matrix(0.06172839506172839,0,0,0.06172839506172839,37.03703703703704,0)" xlink:href="#T"/><use transform="matrix(0.06172839506172839,0,0,0.06172839506172839,49.382716049382715,0)" xlink:href="#ae"/><use transform="matrix(0.06172839506172839,0,0,0.06172839506172839,56.72839506172839,0)" xlink:href="#ac"/><use transform="matrix(0.06172839506172839,0,0,0.06172839506172839,69.07407407407408,0)" xlink:href="#Y"/><use transform="matrix(0.06172839506172839,0,0,0.06172839506172839,85.06172839506173,0)" xlink:href="#af"/><use transform="matrix(0.06172839506172839,0,0,0.06172839506172839,97.40740740740742,0)" xlink:href="#T"/><use transform="matrix(0.06172839506172839,0,0,0.06172839506172839,109.7530864197531,0)" xlink:href="#ag"/><use transform="matrix(0.06172839506172839,0,0,0.06172839506172839,122.09876543209879,0)" xlink:href="#V"/><use transform="matrix(0.06172839506172839,0,0,0.06172839506172839,128.27160493827162,0)" xlink:href="#ah"/></g><g id="n"><use transform="matrix(0.06172839506172839,0,0,0.06172839506172839,0,0)" xlink:href="#ac"/><use transform="matrix(0.06172839506172839,0,0,0.06172839506172839,12.345679012345679,0)" xlink:href="#ag"/><use transform="matrix(0.06172839506172839,0,0,0.06172839506172839,24.691358024691358,0)" xlink:href="#ah"/><use transform="matrix(0.06172839506172839,0,0,0.06172839506172839,35.80246913580247,0)" xlink:href="#ac"/></g><path fill="#1071e5" d="M108 0H70L1-190h34L89-25l56-165h34" id="ai"/><g id="o"><use transform="matrix(0.06172839506172839,0,0,0.06172839506172839,0,0)" xlink:href="#V"/><use transform="matrix(0.06172839506172839,0,0,0.06172839506172839,6.172839506172839,0)" xlink:href="#ah"/><use transform="matrix(0.06172839506172839,0,0,0.06172839506172839,17.28395061728395,0)" xlink:href="#ai"/></g><path fill="#1071e5" d="M177-190C167-65 218 103 67 71c-23-6-38-20-44-43l32-5c15 47 100 32 89-28v-30C133-14 115 1 83 1 29 1 15-40 15-95c0-56 16-97 71-98 29-1 48 16 59 35 1-10 0-23 2-32h30zM94-22c36 0 50-32 50-73 0-42-14-75-50-75-39 0-46 34-46 75s6 73 46 73" id="aj"/><g id="p"><use transform="matrix(0.06172839506172839,0,0,0.06172839506172839,0,0)" xlink:href="#ac"/><use transform="matrix(0.06172839506172839,0,0,0.06172839506172839,12.345679012345679,0)" xlink:href="#ag"/><use transform="matrix(0.06172839506172839,0,0,0.06172839506172839,24.691358024691358,0)" xlink:href="#ah"/><use transform="matrix(0.06172839506172839,0,0,0.06172839506172839,35.80246913580247,0)" xlink:href="#aj"/></g><g id="q"><use transform="matrix(0.06172839506172839,0,0,0.06172839506172839,0,0)" xlink:href="#ac"/><use transform="matrix(0.06172839506172839,0,0,0.06172839506172839,12.345679012345679,0)" xlink:href="#ag"/><use transform="matrix(0.06172839506172839,0,0,0.06172839506172839,24.691358024691358,0)" xlink:href="#ah"/><use transform="matrix(0.06172839506172839,0,0,0.06172839506172839,35.80246913580247,0)" xlink:href="#V"/></g><path fill="#1071e5" d="M127-220V0H93v-220H8v-28h204v28h-85" id="ak"/><path fill="#1071e5" d="M30-248c87 1 191-15 191 75 0 78-77 80-158 76V0H30v-248zm33 125c57 0 124 11 124-50 0-59-68-47-124-48v98" id="al"/><g id="r"><use transform="matrix(0.06172839506172839,0,0,0.06172839506172839,0,0)" xlink:href="#ak"/><use transform="matrix(0.06172839506172839,0,0,0.06172839506172839,13.518518518518517,0)" xlink:href="#al"/><use transform="matrix(0.06172839506172839,0,0,0.06172839506172839,28.33333333333333,0)" xlink:href="#S"/></g></defs></g></svg>