<svg xmlns="http://www.w3.org/2000/svg" xmlns:xlink="http://www.w3.org/1999/xlink" xmlns:lucid="lucid" width="1019" height="1530.88"><g transform="translate(-380.5 -76.17757490981373)" lucid:page-tab-id="0_0"><path d="M400.5 102.18a6 6 0 0 1 6-6h132a6 6 0 0 1 6 6v96c-24.05-17.04-39.02-17.04-48.1-17.04-14.4 0-33.55 17.04-47.95 17.04-8.93 0-24.05 0-47.95-17.04z" stroke="#cc4e00" fill="#fff3d9"/><path d="M408.5 111.18a6 6 0 0 1 6-6h132a6 6 0 0 1 6 6v96c-24.05-17.04-39.02-17.04-48.1-17.04-14.4 0-33.55 17.04-47.95 17.04-8.93 0-24.05 0-47.95-17.04z" stroke="#cc4e00" fill="#fff3d9"/><path d="M416.5 120.18a6 6 0 0 1 6-6h132a6 6 0 0 1 6 6v96c-24.05-17.04-39.02-17.04-48.1-17.04-14.4 0-33.55 17.04-47.95 17.04-8.93 0-24.05 0-47.95-17.04z" stroke="#cc4e00" fill="#fff3d9"/><use xlink:href="#a" transform="matrix(1,0,0,1,421.5,119.17757490981373) translate(40.327160493827165 24.80902777777778)"/><use xlink:href="#b" transform="matrix(1,0,0,1,421.5,119.17757490981373) translate(17.179012345679013 51.47569444444445)"/><path d="M673.5 102.18a6 6 0 0 1 6-6h132a6 6 0 0 1 6 6v96c-24.05-17.04-39.02-17.04-48.1-17.04-14.4 0-33.55 17.04-47.95 17.04-8.93 0-24.05 0-47.95-17.04z" stroke="#cc4e00" fill="#fff3d9"/><path d="M681.5 111.18a6 6 0 0 1 6-6h132a6 6 0 0 1 6 6v96c-24.05-17.04-39.02-17.04-48.1-17.04-14.4 0-33.55 17.04-47.95 17.04-8.93 0-24.05 0-47.95-17.04z" stroke="#cc4e00" fill="#fff3d9"/><path d="M689.5 120.18a6 6 0 0 1 6-6h132a6 6 0 0 1 6 6v96c-24.05-17.04-39.02-17.04-48.1-17.04-14.4 0-33.55 17.04-47.95 17.04-8.93 0-24.05 0-47.95-17.04z" stroke="#cc4e00" fill="#fff3d9"/><use xlink:href="#c" transform="matrix(1,0,0,1,694.5,119.17757490981373) translate(2.246913580246911 41.94444444444444)"/><path d="M976.95 101.97a7.8 7.8 0 0 1 7.55-5.8h116a4.6 4.6 0 0 1 4.45 5.8l-28.9 108.4a7.8 7.8 0 0 1-7.55 5.8h-116a4.6 4.6 0 0 1-4.45-5.8z" stroke="#cc4e00" fill="#fff3d9"/><use xlink:href="#d" transform="matrix(1,0,0,1,951.5,101.17757490981373) translate(21.74574074074074 45.27777777777778)"/><use xlink:href="#e" transform="matrix(1,0,0,1,951.5,101.17757490981373) translate(40.67166666666667 71.94444444444446)"/><path d="M1249.95 101.97a7.8 7.8 0 0 1 7.55-5.8h116a4.6 4.6 0 0 1 4.45 5.8l-28.9 108.4a7.8 7.8 0 0 1-7.55 5.8h-116a4.6 4.6 0 0 1-4.45-5.8z" stroke="#cc4e00" fill="#fff3d9"/><use xlink:href="#f" transform="matrix(1,0,0,1,1224.5,101.17757490981373) translate(47.05438271604939 45.27777777777778)"/><use xlink:href="#g" transform="matrix(1,0,0,1,1224.5,101.17757490981373) translate(44.3445061728395 71.94444444444446)"/><path d="M660 406a6 6 0 0 1 6-6h448a6 6 0 0 1 6 6v708a6 6 0 0 1-6 6H666a6 6 0 0 1-6-6z" stroke="#3a414a" fill="#fff"/><path d="M680 426a6 6 0 0 1 6-6h448a6 6 0 0 1 6 6v708a6 6 0 0 1-6 6H686a6 6 0 0 1-6-6z" stroke="#3a414a" fill="#fff"/><path d="M700 446a6 6 0 0 1 6-6h448a6 6 0 0 1 6 6v708a6 6 0 0 1-6 6H706a6 6 0 0 1-6-6z" stroke="#3a414a" fill="#fff"/><path d="M850 506a6 6 0 0 1 6-6h148a6 6 0 0 1 6 6v108a6 6 0 0 1-6 6H856a6 6 0 0 1-6-6z" stroke="#3a414a" fill="#fff"/><use xlink:href="#h" transform="matrix(1,0,0,1,862,512) translate(2.8179012345679126 51.44444444444444)"/><use xlink:href="#i" transform="matrix(1,0,0,1,862,512) translate(32.20061728395062 51.44444444444444)"/><use xlink:href="#j" transform="matrix(1,0,0,1,862,512) translate(86.55864197530865 51.44444444444444)"/><a xlink:href="https://support.illumina.com/sequencing/sequencing_software/bcl-convert.html" target="_blank"><path d="M850 666a6 6 0 0 1 6-6h148a6 6 0 0 1 6 6v108a6 6 0 0 1-6 6H856a6 6 0 0 1-6-6z" stroke="#3a414a" fill="#fff"/><use xlink:href="#k" transform="matrix(1,0,0,1,862,672) translate(30.040123456790127 51.44444444444444)"/><path class="lucid-link lucid-hotspot lucid-overlay-hotspot" d="M850 666a6 6 0 0 1 6-6h148a6 6 0 0 1 6 6v108a6 6 0 0 1-6 6H856a6 6 0 0 1-6-6z" fill="none"/></a><path d="M850 826a6 6 0 0 1 6-6h148a6 6 0 0 1 6 6v108a6 6 0 0 1-6 6H856a6 6 0 0 1-6-6z" stroke="#3a414a" fill="#fff"/><use xlink:href="#l" transform="matrix(1,0,0,1,862,832) translate(14.030864197530875 51.44444444444444)"/><path d="M850 986a6 6 0 0 1 6-6h148a6 6 0 0 1 6 6v108a6 6 0 0 1-6 6H856a6 6 0 0 1-6-6z" stroke="#3a414a" fill="#fff"/><use xlink:href="#m" transform="matrix(1,0,0,1,862,992) translate(-4.5061728395061635 51.111111111111114)"/><path d="M480.5 212.16v91.17a6 6 0 0 0 6 6H884a6 6 0 0 1 6 6v67.8" stroke="#3a414a" fill="none"/><path d="M481 212.17h-1v-.28l1-.47z" stroke="#3a414a" stroke-width=".05" fill="#3a414a"/><path d="M890 397.88l-4.63-14.26h9.26z" stroke="#3a414a" fill="#3a414a"/><path d="M753.5 212.16v91.17a6 6 0 0 0 6 6H884a6 6 0 0 1 6 6v67.8" stroke="#3a414a" fill="none"/><path d="M754 212.17h-1v-.28l1-.47z" stroke="#3a414a" stroke-width=".05" fill="#3a414a"/><path d="M890 397.88l-4.63-14.26h9.26z" stroke="#3a414a" fill="#3a414a"/><path d="M1026.5 217.18v84.9a6 6 0 0 1-6 6H896a6 6 0 0 0-6 6v69.04" stroke="#3a414a" fill="none"/><path d="M1027 217.2h-1v-.52h1z" stroke="#3a414a" stroke-width=".05" fill="#3a414a"/><path d="M890 397.88l-4.63-14.26h9.26z" stroke="#3a414a" fill="#3a414a"/><path d="M1299.5 217.18v84.9a6 6 0 0 1-6 6H896a6 6 0 0 0-6 6v69.04" stroke="#3a414a" fill="none"/><path d="M1300 217.2h-1v-.52h1z" stroke="#3a414a" stroke-width=".05" fill="#3a414a"/><path d="M890 397.88l-4.63-14.26h9.26z" stroke="#3a414a" fill="#3a414a"/><path d="M850 1266a6 6 0 0 1 6-6h148a6 6 0 0 1 6 6v108a6 6 0 0 1-6 6H856a6 6 0 0 1-6-6z" stroke="#3a414a" fill="#fff"/><use xlink:href="#n" transform="matrix(1,0,0,1,862,1272) translate(36.580246913580254 38.77777777777778)"/><use xlink:href="#o" transform="matrix(1,0,0,1,862,1272) translate(26.703703703703702 65.44444444444446)"/><path d="M930 1161v82.12" stroke="#3a414a" fill="none"/><path d="M930.5 1161h-1v-.5h1z" stroke="#3a414a" stroke-width=".05" fill="#3a414a"/><path d="M930 1257.88l-4.63-14.26h9.26z" stroke="#3a414a" fill="#3a414a"/><path d="M850 1466a6 6 0 0 1 6-6h132a6 6 0 0 1 6 6v102c-24.05-18.04-39.02-18.04-48.1-18.04-14.4 0-33.55 18.04-47.95 18.04-8.93 0-24.05 0-47.95-18.04z" stroke="#1071e5" fill="#edf5ff"/><path d="M858 1475.53a6 6 0 0 1 6-6h132a6 6 0 0 1 6 6v102c-24.05-18.04-39.02-18.04-48.1-18.04-14.4 0-33.55 18.03-47.95 18.03-8.93 0-24.05 0-47.95-18.04z" stroke="#1071e5" fill="#edf5ff"/><path d="M866 1485.06a6 6 0 0 1 6-6h132a6 6 0 0 1 6 6v102c-24.05-18.04-39.02-18.04-48.1-18.04-14.4 0-33.55 18.04-47.95 18.04-8.93 0-24.05 0-47.95-18.04z" stroke="#1071e5" fill="#edf5ff"/><g><use xlink:href="#p" transform="matrix(1,0,0,1,871,1484.0588235294117) translate(13.358024691358025 17.77777777777778)"/><use xlink:href="#q" transform="matrix(1,0,0,1,871,1484.0588235294117) translate(102.12345679012346 17.77777777777778)"/><use xlink:href="#r" transform="matrix(1,0,0,1,871,1484.0588235294117) translate(42.925925925925924 44.44444444444444)"/><use xlink:href="#s" transform="matrix(1,0,0,1,871,1484.0588235294117) translate(10.888888888888879 71.11111111111111)"/></g><path d="M930 1381v62.12" stroke="#3a414a" fill="none"/><path d="M930.5 1381h-1v-.5h1z" stroke="#3a414a" stroke-width=".05" fill="#3a414a"/><path d="M930 1457.88l-4.63-14.26h9.26z" stroke="#3a414a" fill="#3a414a"/><defs><path fill="#cc4e00" d="M160-131c35 5 61 23 61 61C221 17 115-2 30 0v-248c76 3 177-17 177 60 0 33-19 50-47 57zm-97-11c50-1 110 9 110-42 0-47-63-36-110-37v79zm0 115c55-2 124 14 124-45 0-56-70-42-124-44v89" id="t"/><path fill="#cc4e00" d="M212-179c-10-28-35-45-73-45-59 0-87 40-87 99 0 60 29 101 89 101 43 0 62-24 78-52l27 14C228-24 195 4 139 4 59 4 22-46 18-125c-6-104 99-153 187-111 19 9 31 26 39 46" id="u"/><path fill="#cc4e00" d="M30 0v-248h33v221h125V0H30" id="v"/><g id="a"><use transform="matrix(0.06172839506172839,0,0,0.06172839506172839,0,0)" xlink:href="#t"/><use transform="matrix(0.06172839506172839,0,0,0.06172839506172839,14.814814814814813,0)" xlink:href="#u"/><use transform="matrix(0.06172839506172839,0,0,0.06172839506172839,30.80246913580247,0)" xlink:href="#v"/></g><path fill="#cc4e00" d="M30-248c118-7 216 8 213 122C240-48 200 0 122 0H30v-248zM63-27c89 8 146-16 146-99s-60-101-146-95v194" id="w"/><path fill="#cc4e00" d="M24-231v-30h32v30H24zM24 0v-190h32V0H24" id="x"/><path fill="#cc4e00" d="M114-163C36-179 61-72 57 0H25l-1-190h30c1 12-1 29 2 39 6-27 23-49 58-41v29" id="y"/><path fill="#cc4e00" d="M100-194c63 0 86 42 84 106H49c0 40 14 67 53 68 26 1 43-12 49-29l28 8c-11 28-37 45-77 45C44 4 14-33 15-96c1-61 26-98 85-98zm52 81c6-60-76-77-97-28-3 7-6 17-6 28h103" id="z"/><path fill="#cc4e00" d="M96-169c-40 0-48 33-48 73s9 75 48 75c24 0 41-14 43-38l32 2c-6 37-31 61-74 61-59 0-76-41-82-99-10-93 101-131 147-64 4 7 5 14 7 22l-32 3c-4-21-16-35-41-35" id="A"/><path fill="#cc4e00" d="M59-47c-2 24 18 29 38 22v24C64 9 27 4 27-40v-127H5v-23h24l9-43h21v43h35v23H59v120" id="B"/><path fill="#cc4e00" d="M100-194c62-1 85 37 85 99 1 63-27 99-86 99S16-35 15-95c0-66 28-99 85-99zM99-20c44 1 53-31 53-75 0-43-8-75-51-75s-53 32-53 75 10 74 51 75" id="C"/><path fill="#cc4e00" d="M179-190L93 31C79 59 56 82 12 73V49c39 6 53-20 64-50L1-190h34L92-34l54-156h33" id="D"/><g id="b"><use transform="matrix(0.06172839506172839,0,0,0.06172839506172839,0,0)" xlink:href="#w"/><use transform="matrix(0.06172839506172839,0,0,0.06172839506172839,15.987654320987653,0)" xlink:href="#x"/><use transform="matrix(0.06172839506172839,0,0,0.06172839506172839,20.864197530864196,0)" xlink:href="#y"/><use transform="matrix(0.06172839506172839,0,0,0.06172839506172839,28.209876543209873,0)" xlink:href="#z"/><use transform="matrix(0.06172839506172839,0,0,0.06172839506172839,40.55555555555555,0)" xlink:href="#A"/><use transform="matrix(0.06172839506172839,0,0,0.06172839506172839,51.66666666666666,0)" xlink:href="#B"/><use transform="matrix(0.06172839506172839,0,0,0.06172839506172839,57.8395061728395,0)" xlink:href="#C"/><use transform="matrix(0.06172839506172839,0,0,0.06172839506172839,70.18518518518518,0)" xlink:href="#y"/><use transform="matrix(0.06172839506172839,0,0,0.06172839506172839,77.53086419753086,0)" xlink:href="#D"/></g><path fill="#cc4e00" d="M185-189c-5-48-123-54-124 2 14 75 158 14 163 119 3 78-121 87-175 55-17-10-28-26-33-46l33-7c5 56 141 63 141-1 0-78-155-14-162-118-5-82 145-84 179-34 5 7 8 16 11 25" id="E"/><path fill="#cc4e00" d="M141-36C126-15 110 5 73 4 37 3 15-17 15-53c-1-64 63-63 125-63 3-35-9-54-41-54-24 1-41 7-42 31l-33-3c5-37 33-52 76-52 45 0 72 20 72 64v82c-1 20 7 32 28 27v20c-31 9-61-2-59-35zM48-53c0 20 12 33 32 33 41-3 63-29 60-74-43 2-92-5-92 41" id="F"/><path fill="#cc4e00" d="M210-169c-67 3-38 105-44 169h-31v-121c0-29-5-50-35-48C34-165 62-65 56 0H25l-1-190h30c1 10-1 24 2 32 10-44 99-50 107 0 11-21 27-35 58-36 85-2 47 119 55 194h-31v-121c0-29-5-49-35-48" id="G"/><path fill="#cc4e00" d="M115-194c55 1 70 41 70 98S169 2 115 4C84 4 66-9 55-30l1 105H24l-1-265h31l2 30c10-21 28-34 59-34zm-8 174c40 0 45-34 45-75s-6-73-45-74c-42 0-51 32-51 76 0 43 10 73 51 73" id="H"/><path fill="#cc4e00" d="M24 0v-261h32V0H24" id="I"/><path fill="#cc4e00" d="M135-143c-3-34-86-38-87 0 15 53 115 12 119 90S17 21 10-45l28-5c4 36 97 45 98 0-10-56-113-15-118-90-4-57 82-63 122-42 12 7 21 19 24 35" id="J"/><path fill="#cc4e00" d="M106-169C34-169 62-67 57 0H25v-261h32l-1 103c12-21 28-36 61-36 89 0 53 116 60 194h-32v-121c2-32-8-49-39-48" id="K"/><g id="c"><use transform="matrix(0.06172839506172839,0,0,0.06172839506172839,0,0)" xlink:href="#E"/><use transform="matrix(0.06172839506172839,0,0,0.06172839506172839,14.814814814814813,0)" xlink:href="#F"/><use transform="matrix(0.06172839506172839,0,0,0.06172839506172839,27.160493827160494,0)" xlink:href="#G"/><use transform="matrix(0.06172839506172839,0,0,0.06172839506172839,45.61728395061728,0)" xlink:href="#H"/><use transform="matrix(0.06172839506172839,0,0,0.06172839506172839,57.962962962962955,0)" xlink:href="#I"/><use transform="matrix(0.06172839506172839,0,0,0.06172839506172839,62.8395061728395,0)" xlink:href="#z"/><use transform="matrix(0.06172839506172839,0,0,0.06172839506172839,75.18518518518518,0)" xlink:href="#J"/><use transform="matrix(0.06172839506172839,0,0,0.06172839506172839,86.29629629629629,0)" xlink:href="#K"/><use transform="matrix(0.06172839506172839,0,0,0.06172839506172839,98.64197530864197,0)" xlink:href="#z"/><use transform="matrix(0.06172839506172839,0,0,0.06172839506172839,110.98765432098766,0)" xlink:href="#z"/><use transform="matrix(0.06172839506172839,0,0,0.06172839506172839,123.33333333333334,0)" xlink:href="#B"/></g><path fill="#cc4e00" d="M145-31C134-9 116 4 85 4 32 4 16-35 15-94c0-59 17-99 70-100 32-1 48 14 60 33 0-11-1-24 2-32h30l-1 268h-32zM93-21c41 0 51-33 51-76s-8-73-50-73c-40 0-46 35-46 75s5 74 45 74" id="L"/><path fill="#cc4e00" d="M84 4C-5 8 30-112 23-190h32v120c0 31 7 50 39 49 72-2 45-101 50-169h31l1 190h-30c-1-10 1-25-2-33-11 22-28 36-60 37" id="M"/><path fill="#cc4e00" d="M117-194c89-4 53 116 60 194h-32v-121c0-31-8-49-39-48C34-167 62-67 57 0H25l-1-190h30c1 10-1 24 2 32 11-22 29-35 61-36" id="N"/><path fill="#cc4e00" d="M177-190C167-65 218 103 67 71c-23-6-38-20-44-43l32-5c15 47 100 32 89-28v-30C133-14 115 1 83 1 29 1 15-40 15-95c0-56 16-97 71-98 29-1 48 16 59 35 1-10 0-23 2-32h30zM94-22c36 0 50-32 50-73 0-42-14-75-50-75-39 0-46 34-46 75s6 73 46 73" id="O"/><g id="d"><use transform="matrix(0.06172839506172839,0,0,0.06172839506172839,0,0)" xlink:href="#J"/><use transform="matrix(0.06172839506172839,0,0,0.06172839506172839,11.11111111111111,0)" xlink:href="#z"/><use transform="matrix(0.06172839506172839,0,0,0.06172839506172839,23.45679012345679,0)" xlink:href="#L"/><use transform="matrix(0.06172839506172839,0,0,0.06172839506172839,35.80246913580247,0)" xlink:href="#M"/><use transform="matrix(0.06172839506172839,0,0,0.06172839506172839,48.148148148148145,0)" xlink:href="#z"/><use transform="matrix(0.06172839506172839,0,0,0.06172839506172839,60.49382716049382,0)" xlink:href="#N"/><use transform="matrix(0.06172839506172839,0,0,0.06172839506172839,72.8395061728395,0)" xlink:href="#A"/><use transform="matrix(0.06172839506172839,0,0,0.06172839506172839,83.95061728395062,0)" xlink:href="#x"/><use transform="matrix(0.06172839506172839,0,0,0.06172839506172839,88.82716049382717,0)" xlink:href="#N"/><use transform="matrix(0.06172839506172839,0,0,0.06172839506172839,101.17283950617285,0)" xlink:href="#O"/></g><g id="e"><use transform="matrix(0.06172839506172839,0,0,0.06172839506172839,0,0)" xlink:href="#A"/><use transform="matrix(0.06172839506172839,0,0,0.06172839506172839,11.11111111111111,0)" xlink:href="#z"/><use transform="matrix(0.06172839506172839,0,0,0.06172839506172839,23.45679012345679,0)" xlink:href="#N"/><use transform="matrix(0.06172839506172839,0,0,0.06172839506172839,35.80246913580247,0)" xlink:href="#B"/><use transform="matrix(0.06172839506172839,0,0,0.06172839506172839,41.97530864197531,0)" xlink:href="#z"/><use transform="matrix(0.06172839506172839,0,0,0.06172839506172839,54.32098765432099,0)" xlink:href="#y"/></g><path fill="#cc4e00" d="M85-194c31 0 48 13 60 33l-1-100h32l1 261h-30c-2-10 0-23-3-31C134-8 116 4 85 4 32 4 16-35 15-94c0-66 23-100 70-100zm9 24c-40 0-46 34-46 75 0 40 6 74 45 74 42 0 51-32 51-76 0-42-9-74-50-73" id="P"/><g id="f"><use transform="matrix(0.06172839506172839,0,0,0.06172839506172839,0,0)" xlink:href="#B"/><use transform="matrix(0.06172839506172839,0,0,0.06172839506172839,6.172839506172839,0)" xlink:href="#K"/><use transform="matrix(0.06172839506172839,0,0,0.06172839506172839,18.51851851851852,0)" xlink:href="#y"/><use transform="matrix(0.06172839506172839,0,0,0.06172839506172839,25.864197530864196,0)" xlink:href="#z"/><use transform="matrix(0.06172839506172839,0,0,0.06172839506172839,38.20987654320987,0)" xlink:href="#F"/><use transform="matrix(0.06172839506172839,0,0,0.06172839506172839,50.55555555555555,0)" xlink:href="#P"/></g><g id="g"><use transform="matrix(0.06172839506172839,0,0,0.06172839506172839,0,0)" xlink:href="#A"/><use transform="matrix(0.06172839506172839,0,0,0.06172839506172839,11.11111111111111,0)" xlink:href="#C"/><use transform="matrix(0.06172839506172839,0,0,0.06172839506172839,23.45679012345679,0)" xlink:href="#M"/><use transform="matrix(0.06172839506172839,0,0,0.06172839506172839,35.80246913580247,0)" xlink:href="#N"/><use transform="matrix(0.06172839506172839,0,0,0.06172839506172839,48.148148148148145,0)" xlink:href="#B"/></g><path fill="#3a414a" d="M143 4C61 4 22-44 18-125c-5-107 100-154 193-111 17 8 29 25 37 43l-32 9c-13-25-37-40-76-40-61 0-88 39-88 99 0 61 29 100 91 101 35 0 62-11 79-27v-45h-74v-28h105v86C228-13 192 4 143 4" id="Q"/><path fill="#3a414a" d="M100-194c63 0 86 42 84 106H49c0 40 14 67 53 68 26 1 43-12 49-29l28 8c-11 28-37 45-77 45C44 4 14-33 15-96c1-61 26-98 85-98zm52 81c6-60-76-77-97-28-3 7-6 17-6 28h103" id="R"/><path fill="#3a414a" d="M59-47c-2 24 18 29 38 22v24C64 9 27 4 27-40v-127H5v-23h24l9-43h21v43h35v23H59v120" id="S"/><g id="h"><use transform="matrix(0.04320987654320987,0,0,0.04320987654320987,0,0)" xlink:href="#Q"/><use transform="matrix(0.04320987654320987,0,0,0.04320987654320987,12.098765432098762,0)" xlink:href="#R"/><use transform="matrix(0.04320987654320987,0,0,0.04320987654320987,20.740740740740733,0)" xlink:href="#S"/></g><path fill="#3a414a" d="M135-143c-3-34-86-38-87 0 15 53 115 12 119 90S17 21 10-45l28-5c4 36 97 45 98 0-10-56-113-15-118-90-4-57 82-63 122-42 12 7 21 19 24 35" id="T"/><path fill="#3a414a" d="M141-36C126-15 110 5 73 4 37 3 15-17 15-53c-1-64 63-63 125-63 3-35-9-54-41-54-24 1-41 7-42 31l-33-3c5-37 33-52 76-52 45 0 72 20 72 64v82c-1 20 7 32 28 27v20c-31 9-61-2-59-35zM48-53c0 20 12 33 32 33 41-3 63-29 60-74-43 2-92-5-92 41" id="U"/><path fill="#3a414a" d="M210-169c-67 3-38 105-44 169h-31v-121c0-29-5-50-35-48C34-165 62-65 56 0H25l-1-190h30c1 10-1 24 2 32 10-44 99-50 107 0 11-21 27-35 58-36 85-2 47 119 55 194h-31v-121c0-29-5-49-35-48" id="V"/><path fill="#3a414a" d="M115-194c55 1 70 41 70 98S169 2 115 4C84 4 66-9 55-30l1 105H24l-1-265h31l2 30c10-21 28-34 59-34zm-8 174c40 0 45-34 45-75s-6-73-45-74c-42 0-51 32-51 76 0 43 10 73 51 73" id="W"/><path fill="#3a414a" d="M24 0v-261h32V0H24" id="X"/><g id="i"><use transform="matrix(0.04320987654320987,0,0,0.04320987654320987,0,0)" xlink:href="#T"/><use transform="matrix(0.04320987654320987,0,0,0.04320987654320987,7.777777777777776,0)" xlink:href="#U"/><use transform="matrix(0.04320987654320987,0,0,0.04320987654320987,16.41975308641975,0)" xlink:href="#V"/><use transform="matrix(0.04320987654320987,0,0,0.04320987654320987,29.3395061728395,0)" xlink:href="#W"/><use transform="matrix(0.04320987654320987,0,0,0.04320987654320987,37.981481481481474,0)" xlink:href="#X"/><use transform="matrix(0.04320987654320987,0,0,0.04320987654320987,41.395061728395056,0)" xlink:href="#R"/></g><path fill="#3a414a" d="M117-194c89-4 53 116 60 194h-32v-121c0-31-8-49-39-48C34-167 62-67 57 0H25l-1-190h30c1 10-1 24 2 32 11-22 29-35 61-36" id="Y"/><g id="j"><use transform="matrix(0.04320987654320987,0,0,0.04320987654320987,0,0)" xlink:href="#Y"/><use transform="matrix(0.04320987654320987,0,0,0.04320987654320987,8.641975308641973,0)" xlink:href="#U"/><use transform="matrix(0.04320987654320987,0,0,0.04320987654320987,17.283950617283946,0)" xlink:href="#V"/><use transform="matrix(0.04320987654320987,0,0,0.04320987654320987,30.2037037037037,0)" xlink:href="#R"/><use transform="matrix(0.04320987654320987,0,0,0.04320987654320987,38.84567901234567,0)" xlink:href="#T"/></g><path fill="#3a414a" d="M115-194c53 0 69 39 70 98 0 66-23 100-70 100C84 3 66-7 56-30L54 0H23l1-261h32v101c10-23 28-34 59-34zm-8 174c40 0 45-34 45-75 0-40-5-75-45-74-42 0-51 32-51 76 0 43 10 73 51 73" id="Z"/><path fill="#3a414a" d="M96-169c-40 0-48 33-48 73s9 75 48 75c24 0 41-14 43-38l32 2c-6 37-31 61-74 61-59 0-76-41-82-99-10-93 101-131 147-64 4 7 5 14 7 22l-32 3c-4-21-16-35-41-35" id="aa"/><path fill="#3a414a" d="M16-82v-28h88v28H16" id="ab"/><path fill="#3a414a" d="M100-194c62-1 85 37 85 99 1 63-27 99-86 99S16-35 15-95c0-66 28-99 85-99zM99-20c44 1 53-31 53-75 0-43-8-75-51-75s-53 32-53 75 10 74 51 75" id="ac"/><path fill="#3a414a" d="M108 0H70L1-190h34L89-25l56-165h34" id="ad"/><path fill="#3a414a" d="M114-163C36-179 61-72 57 0H25l-1-190h30c1 12-1 29 2 39 6-27 23-49 58-41v29" id="ae"/><g id="k"><use transform="matrix(0.04320987654320987,0,0,0.04320987654320987,0,0)" xlink:href="#Z"/><use transform="matrix(0.04320987654320987,0,0,0.04320987654320987,8.641975308641973,0)" xlink:href="#aa"/><use transform="matrix(0.04320987654320987,0,0,0.04320987654320987,16.41975308641975,0)" xlink:href="#X"/><use transform="matrix(0.04320987654320987,0,0,0.04320987654320987,19.83333333333333,0)" xlink:href="#ab"/><use transform="matrix(0.04320987654320987,0,0,0.04320987654320987,24.975308641975303,0)" xlink:href="#aa"/><use transform="matrix(0.04320987654320987,0,0,0.04320987654320987,32.75308641975308,0)" xlink:href="#ac"/><use transform="matrix(0.04320987654320987,0,0,0.04320987654320987,41.395061728395056,0)" xlink:href="#Y"/><use transform="matrix(0.04320987654320987,0,0,0.04320987654320987,50.037037037037024,0)" xlink:href="#ad"/><use transform="matrix(0.04320987654320987,0,0,0.04320987654320987,57.81481481481481,0)" xlink:href="#R"/><use transform="matrix(0.04320987654320987,0,0,0.04320987654320987,66.45679012345678,0)" xlink:href="#ae"/><use transform="matrix(0.04320987654320987,0,0,0.04320987654320987,71.59876543209876,0)" xlink:href="#S"/></g><path fill="#3a414a" d="M101-234c-31-9-42 10-38 44h38v23H63V0H32v-167H5v-23h27c-7-52 17-82 69-68v24" id="af"/><path fill="#3a414a" d="M145-31C134-9 116 4 85 4 32 4 16-35 15-94c0-59 17-99 70-100 32-1 48 14 60 33 0-11-1-24 2-32h30l-1 268h-32zM93-21c41 0 51-33 51-76s-8-73-50-73c-40 0-46 35-46 75s5 74 45 74" id="ag"/><path fill="#3a414a" d="M101-251c82-7 93 87 43 132L82-64C71-53 59-42 53-27h129V0H18c2-99 128-94 128-182 0-28-16-43-45-43s-46 15-49 41l-32-3c6-41 34-60 81-64" id="ah"/><g id="l"><use transform="matrix(0.04320987654320987,0,0,0.04320987654320987,0,0)" xlink:href="#af"/><use transform="matrix(0.04320987654320987,0,0,0.04320987654320987,4.320987654320986,0)" xlink:href="#U"/><use transform="matrix(0.04320987654320987,0,0,0.04320987654320987,12.962962962962958,0)" xlink:href="#T"/><use transform="matrix(0.04320987654320987,0,0,0.04320987654320987,20.740740740740733,0)" xlink:href="#S"/><use transform="matrix(0.04320987654320987,0,0,0.04320987654320987,25.061728395061724,0)" xlink:href="#ag"/><use transform="matrix(0.04320987654320987,0,0,0.04320987654320987,33.703703703703695,0)" xlink:href="#T"/><use transform="matrix(0.04320987654320987,0,0,0.04320987654320987,41.481481481481474,0)" xlink:href="#ah"/><use transform="matrix(0.04320987654320987,0,0,0.04320987654320987,50.12345679012345,0)" xlink:href="#T"/><use transform="matrix(0.04320987654320987,0,0,0.04320987654320987,57.901234567901234,0)" xlink:href="#U"/><use transform="matrix(0.04320987654320987,0,0,0.04320987654320987,66.5432098765432,0)" xlink:href="#V"/><use transform="matrix(0.04320987654320987,0,0,0.04320987654320987,79.46296296296295,0)" xlink:href="#W"/><use transform="matrix(0.04320987654320987,0,0,0.04320987654320987,88.10493827160492,0)" xlink:href="#X"/><use transform="matrix(0.04320987654320987,0,0,0.04320987654320987,91.5185185185185,0)" xlink:href="#R"/><use transform="matrix(0.04320987654320987,0,0,0.04320987654320987,100.16049382716047,0)" xlink:href="#T"/></g><path fill="#3a414a" d="M85-194c31 0 48 13 60 33l-1-100h32l1 261h-30c-2-10 0-23-3-31C134-8 116 4 85 4 32 4 16-35 15-94c0-66 23-100 70-100zm9 24c-40 0-46 34-46 75 0 40 6 74 45 74 42 0 51-32 51-76 0-42-9-74-50-73" id="ai"/><path fill="#3a414a" d="M177-190C167-65 218 103 67 71c-23-6-38-20-44-43l32-5c15 47 100 32 89-28v-30C133-14 115 1 83 1 29 1 15-40 15-95c0-56 16-97 71-98 29-1 48 16 59 35 1-10 0-23 2-32h30zM94-22c36 0 50-32 50-73 0-42-14-75-50-75-39 0-46 34-46 75s6 73 46 73" id="aj"/><path fill="#3a414a" d="M84 4C-5 8 30-112 23-190h32v120c0 31 7 50 39 49 72-2 45-101 50-169h31l1 190h-30c-1-10 1-25-2-33-11 22-28 36-60 37" id="ak"/><g id="m"><use transform="matrix(0.04320987654320987,0,0,0.04320987654320987,0,0)" xlink:href="#T"/><use transform="matrix(0.04320987654320987,0,0,0.04320987654320987,7.777777777777776,0)" xlink:href="#U"/><use transform="matrix(0.04320987654320987,0,0,0.04320987654320987,16.41975308641975,0)" xlink:href="#V"/><use transform="matrix(0.04320987654320987,0,0,0.04320987654320987,29.3395061728395,0)" xlink:href="#W"/><use transform="matrix(0.04320987654320987,0,0,0.04320987654320987,37.981481481481474,0)" xlink:href="#X"/><use transform="matrix(0.04320987654320987,0,0,0.04320987654320987,41.395061728395056,0)" xlink:href="#R"/><use transform="matrix(0.04320987654320987,0,0,0.04320987654320987,50.037037037037024,0)" xlink:href="#T"/><use transform="matrix(0.04320987654320987,0,0,0.04320987654320987,57.81481481481481,0)" xlink:href="#ah"/><use transform="matrix(0.04320987654320987,0,0,0.04320987654320987,66.45679012345678,0)" xlink:href="#ae"/><use transform="matrix(0.04320987654320987,0,0,0.04320987654320987,71.59876543209876,0)" xlink:href="#R"/><use transform="matrix(0.04320987654320987,0,0,0.04320987654320987,80.24074074074073,0)" xlink:href="#U"/><use transform="matrix(0.04320987654320987,0,0,0.04320987654320987,88.88271604938272,0)" xlink:href="#ai"/><use transform="matrix(0.04320987654320987,0,0,0.04320987654320987,97.5246913580247,0)" xlink:href="#aj"/><use transform="matrix(0.04320987654320987,0,0,0.04320987654320987,106.16666666666666,0)" xlink:href="#ae"/><use transform="matrix(0.04320987654320987,0,0,0.04320987654320987,111.30864197530863,0)" xlink:href="#ac"/><use transform="matrix(0.04320987654320987,0,0,0.04320987654320987,119.9506172839506,0)" xlink:href="#ak"/><use transform="matrix(0.04320987654320987,0,0,0.04320987654320987,128.59259259259258,0)" xlink:href="#W"/><use transform="matrix(0.04320987654320987,0,0,0.04320987654320987,137.23456790123456,0)" xlink:href="#T"/></g><g id="n"><use transform="matrix(0.06172839506172839,0,0,0.06172839506172839,0,0)" xlink:href="#V"/><use transform="matrix(0.06172839506172839,0,0,0.06172839506172839,18.456790123456788,0)" xlink:href="#R"/><use transform="matrix(0.06172839506172839,0,0,0.06172839506172839,30.80246913580247,0)" xlink:href="#ae"/><use transform="matrix(0.06172839506172839,0,0,0.06172839506172839,38.148148148148145,0)" xlink:href="#aj"/><use transform="matrix(0.06172839506172839,0,0,0.06172839506172839,50.49382716049382,0)" xlink:href="#R"/></g><g id="o"><use transform="matrix(0.06172839506172839,0,0,0.06172839506172839,0,0)" xlink:href="#T"/><use transform="matrix(0.06172839506172839,0,0,0.06172839506172839,11.11111111111111,0)" xlink:href="#U"/><use transform="matrix(0.06172839506172839,0,0,0.06172839506172839,23.45679012345679,0)" xlink:href="#V"/><use transform="matrix(0.06172839506172839,0,0,0.06172839506172839,41.91358024691358,0)" xlink:href="#W"/><use transform="matrix(0.06172839506172839,0,0,0.06172839506172839,54.25925925925926,0)" xlink:href="#X"/><use transform="matrix(0.06172839506172839,0,0,0.06172839506172839,59.135802469135804,0)" xlink:href="#R"/><use transform="matrix(0.06172839506172839,0,0,0.06172839506172839,71.48148148148148,0)" xlink:href="#T"/></g><path fill="#1071e5" d="M135-143c-3-34-86-38-87 0 15 53 115 12 119 90S17 21 10-45l28-5c4 36 97 45 98 0-10-56-113-15-118-90-4-57 82-63 122-42 12 7 21 19 24 35" id="al"/><path fill="#1071e5" d="M141-36C126-15 110 5 73 4 37 3 15-17 15-53c-1-64 63-63 125-63 3-35-9-54-41-54-24 1-41 7-42 31l-33-3c5-37 33-52 76-52 45 0 72 20 72 64v82c-1 20 7 32 28 27v20c-31 9-61-2-59-35zM48-53c0 20 12 33 32 33 41-3 63-29 60-74-43 2-92-5-92 41" id="am"/><path fill="#1071e5" d="M210-169c-67 3-38 105-44 169h-31v-121c0-29-5-50-35-48C34-165 62-65 56 0H25l-1-190h30c1 10-1 24 2 32 10-44 99-50 107 0 11-21 27-35 58-36 85-2 47 119 55 194h-31v-121c0-29-5-49-35-48" id="an"/><path fill="#1071e5" d="M115-194c55 1 70 41 70 98S169 2 115 4C84 4 66-9 55-30l1 105H24l-1-265h31l2 30c10-21 28-34 59-34zm-8 174c40 0 45-34 45-75s-6-73-45-74c-42 0-51 32-51 76 0 43 10 73 51 73" id="ao"/><path fill="#1071e5" d="M24 0v-261h32V0H24" id="ap"/><path fill="#1071e5" d="M100-194c63 0 86 42 84 106H49c0 40 14 67 53 68 26 1 43-12 49-29l28 8c-11 28-37 45-77 45C44 4 14-33 15-96c1-61 26-98 85-98zm52 81c6-60-76-77-97-28-3 7-6 17-6 28h103" id="aq"/><g id="p"><use transform="matrix(0.06172839506172839,0,0,0.06172839506172839,0,0)" xlink:href="#al"/><use transform="matrix(0.06172839506172839,0,0,0.06172839506172839,11.11111111111111,0)" xlink:href="#am"/><use transform="matrix(0.06172839506172839,0,0,0.06172839506172839,23.45679012345679,0)" xlink:href="#an"/><use transform="matrix(0.06172839506172839,0,0,0.06172839506172839,41.91358024691358,0)" xlink:href="#ao"/><use transform="matrix(0.06172839506172839,0,0,0.06172839506172839,54.25925925925926,0)" xlink:href="#ap"/><use transform="matrix(0.06172839506172839,0,0,0.06172839506172839,59.135802469135804,0)" xlink:href="#aq"/><use transform="matrix(0.06172839506172839,0,0,0.06172839506172839,71.48148148148148,0)" xlink:href="#al"/></g><path fill="#1071e5" d="M100-194c62-1 85 37 85 99 1 63-27 99-86 99S16-35 15-95c0-66 28-99 85-99zM99-20c44 1 53-31 53-75 0-43-8-75-51-75s-53 32-53 75 10 74 51 75" id="ar"/><path fill="#1071e5" d="M101-234c-31-9-42 10-38 44h38v23H63V0H32v-167H5v-23h27c-7-52 17-82 69-68v24" id="as"/><g id="q"><use transform="matrix(0.06172839506172839,0,0,0.06172839506172839,0,0)" xlink:href="#ar"/><use transform="matrix(0.06172839506172839,0,0,0.06172839506172839,12.345679012345679,0)" xlink:href="#as"/></g><path fill="#1071e5" d="M59-47c-2 24 18 29 38 22v24C64 9 27 4 27-40v-127H5v-23h24l9-43h21v43h35v23H59v120" id="at"/><path fill="#1071e5" d="M145-31C134-9 116 4 85 4 32 4 16-35 15-94c0-59 17-99 70-100 32-1 48 14 60 33 0-11-1-24 2-32h30l-1 268h-32zM93-21c41 0 51-33 51-76s-8-73-50-73c-40 0-46 35-46 75s5 74 45 74" id="au"/><g id="r"><use transform="matrix(0.06172839506172839,0,0,0.06172839506172839,0,0)" xlink:href="#as"/><use transform="matrix(0.06172839506172839,0,0,0.06172839506172839,6.172839506172839,0)" xlink:href="#am"/><use transform="matrix(0.06172839506172839,0,0,0.06172839506172839,18.51851851851852,0)" xlink:href="#al"/><use transform="matrix(0.06172839506172839,0,0,0.06172839506172839,29.62962962962963,0)" xlink:href="#at"/><use transform="matrix(0.06172839506172839,0,0,0.06172839506172839,35.80246913580247,0)" xlink:href="#au"/></g><path fill="#1071e5" d="M114-163C36-179 61-72 57 0H25l-1-190h30c1 12-1 29 2 39 6-27 23-49 58-41v29" id="av"/><path fill="#1071e5" d="M85-194c31 0 48 13 60 33l-1-100h32l1 261h-30c-2-10 0-23-3-31C134-8 116 4 85 4 32 4 16-35 15-94c0-66 23-100 70-100zm9 24c-40 0-46 34-46 75 0 40 6 74 45 74 42 0 51-32 51-76 0-42-9-74-50-73" id="aw"/><path fill="#1071e5" d="M177-190C167-65 218 103 67 71c-23-6-38-20-44-43l32-5c15 47 100 32 89-28v-30C133-14 115 1 83 1 29 1 15-40 15-95c0-56 16-97 71-98 29-1 48 16 59 35 1-10 0-23 2-32h30zM94-22c36 0 50-32 50-73 0-42-14-75-50-75-39 0-46 34-46 75s6 73 46 73" id="ax"/><path fill="#1071e5" d="M84 4C-5 8 30-112 23-190h32v120c0 31 7 50 39 49 72-2 45-101 50-169h31l1 190h-30c-1-10 1-25-2-33-11 22-28 36-60 37" id="ay"/><g id="s"><use transform="matrix(0.06172839506172839,0,0,0.06172839506172839,0,0)" xlink:href="#av"/><use transform="matrix(0.06172839506172839,0,0,0.06172839506172839,7.345679012345679,0)" xlink:href="#aq"/><use transform="matrix(0.06172839506172839,0,0,0.06172839506172839,19.691358024691358,0)" xlink:href="#am"/><use transform="matrix(0.06172839506172839,0,0,0.06172839506172839,32.03703703703704,0)" xlink:href="#aw"/><use transform="matrix(0.06172839506172839,0,0,0.06172839506172839,44.382716049382715,0)" xlink:href="#ax"/><use transform="matrix(0.06172839506172839,0,0,0.06172839506172839,56.72839506172839,0)" xlink:href="#av"/><use transform="matrix(0.06172839506172839,0,0,0.06172839506172839,64.07407407407408,0)" xlink:href="#ar"/><use transform="matrix(0.06172839506172839,0,0,0.06172839506172839,76.41975308641976,0)" xlink:href="#ay"/><use transform="matrix(0.06172839506172839,0,0,0.06172839506172839,88.76543209876544,0)" xlink:href="#ao"/><use transform="matrix(0.06172839506172839,0,0,0.06172839506172839,101.11111111111113,0)" xlink:href="#al"/></g></defs></g></svg>