<svg xmlns="http://www.w3.org/2000/svg" xmlns:xlink="http://www.w3.org/1999/xlink" xmlns:lucid="lucid" width="1075.42" height="1508.72"><g transform="translate(-16.953954910397698 -148.32623326329258)" lucid:page-tab-id="0_0"><path d="M553.6 208.1a6 6 0 0 1 6-6h148a6 6 0 0 1 6 6v108a6 6 0 0 1-6 6h-148a6 6 0 0 1-6-6z" stroke="#3a414a" fill="#fff"/><use xlink:href="#a" transform="matrix(1,0,0,1,565.6020025031289,214.10763454317896) translate(25.438271604938272 26.77777777777778)"/><use xlink:href="#b" transform="matrix(1,0,0,1,565.6020025031289,214.10763454317896) translate(18.709876543209873 53.44444444444445)"/><use xlink:href="#c" transform="matrix(1,0,0,1,565.6020025031289,214.10763454317896) translate(21.76543209876543 80.11111111111111)"/><use xlink:href="#d" transform="matrix(1,0,0,1,565.6020025031289,214.10763454317896) translate(64.97530864197532 80.11111111111111)"/><path d="M553.6 408.1a6 6 0 0 1 6-6h148a6 6 0 0 1 6 6v108a6 6 0 0 1-6 6h-148a6 6 0 0 1-6-6z" stroke="#3a414a" fill="#fff"/><use xlink:href="#e" transform="matrix(1,0,0,1,565.6020025031289,414.10763454317896) translate(5.592592592592595 39.111111111111114)"/><use xlink:href="#f" transform="matrix(1,0,0,1,565.6020025031289,414.10763454317896) translate(88.06172839506172 39.111111111111114)"/><use xlink:href="#g" transform="matrix(1,0,0,1,565.6020025031289,414.10763454317896) translate(-2.2777777777777715 65.77777777777777)"/><path d="M553.6 756.68a6 6 0 0 1 6-6h148a6 6 0 0 1 6 6v108a6 6 0 0 1-6 6h-148a6 6 0 0 1-6-6z" stroke="#3a414a" fill="#fff"/><use xlink:href="#h" transform="matrix(1,0,0,1,565.6020025031289,762.6791916302967) translate(18.70987654320988 38.77777777777778)"/><use xlink:href="#c" transform="matrix(1,0,0,1,565.6020025031289,762.6791916302967) translate(10.685185185185176 65.44444444444446)"/><use xlink:href="#i" transform="matrix(1,0,0,1,565.6020025031289,762.6791916302967) translate(53.895061728395056 65.44444444444446)"/><path d="M553.6 1195.85a6 6 0 0 1 6-6h148a6 6 0 0 1 6 6v108a6 6 0 0 1-6 6h-148a6 6 0 0 1-6-6z" stroke="#3a414a" fill="#fff"/><use xlink:href="#j" transform="matrix(1,0,0,1,565.6020025031289,1201.8462580298421) translate(16.796296296296298 38.77777777777778)"/><use xlink:href="#k" transform="matrix(1,0,0,1,565.6020025031289,1201.8462580298421) translate(32.29012345679012 65.44444444444446)"/><path d="M633.6 323.07v62.2" stroke="#3a414a" fill="none"/><path d="M634.1 323.08h-1v-.5h1z" stroke="#3a414a" stroke-width=".05" fill="#3a414a"/><path d="M633.6 400.03l-4.63-14.27h9.27z" stroke="#3a414a" fill="#3a414a"/><path d="M633.6 523.07v210.76" stroke="#3a414a" fill="none"/><path d="M634.1 523.08h-1v-.5h1z" stroke="#3a414a" stroke-width=".05" fill="#3a414a"/><path d="M633.6 748.6l-4.63-14.27h9.27z" stroke="#3a414a" fill="#3a414a"/><path d="M633.6 871.64V1173" stroke="#3a414a" fill="none"/><path d="M634.1 871.65h-1v-.5h1z" stroke="#3a414a" stroke-width=".05" fill="#3a414a"/><path d="M633.6 1187.77l-4.63-14.27h9.27z" stroke="#3a414a" fill="#3a414a"/><path d="M98.14 174.33a6 6 0 0 1 6-6H354.4a6 6 0 0 1 6 6V355.9c-43.8-31.33-71.08-31.33-87.6-31.33-26.23 0-61.1 31.32-87.34 31.32-16.25 0-43.8 0-87.33-31.33z" stroke="#cc4e00" fill="#fff3d9"/><use xlink:href="#l" transform="matrix(1,0,0,1,103.13540510543837,173.32623326329258) translate(8.753086419753089 17.77777777777778)"/><use xlink:href="#m" transform="matrix(1,0,0,1,103.13540510543837,173.32623326329258) translate(114.80246913580247 17.77777777777778)"/><use xlink:href="#n" transform="matrix(1,0,0,1,103.13540510543837,173.32623326329258) translate(205.97530864197532 17.77777777777778)"/><use xlink:href="#o" transform="matrix(1,0,0,1,103.13540510543837,173.32623326329258) translate(110.48148148148148 44.44444444444444)"/><use xlink:href="#p" transform="matrix(1,0,0,1,103.13540510543837,173.32623326329258) translate(87.05555555555556 71.11111111111111)"/><use xlink:href="#q" transform="matrix(1,0,0,1,103.13540510543837,173.32623326329258) translate(141.37654320987656 71.11111111111111)"/><use xlink:href="#r" transform="matrix(1,0,0,1,103.13540510543837,173.32623326329258) translate(59.89506172839506 97.77777777777777)"/><use xlink:href="#s" transform="matrix(1,0,0,1,103.13540510543837,173.32623326329258) translate(114.21604938271605 97.77777777777777)"/><use xlink:href="#q" transform="matrix(1,0,0,1,103.13540510543837,173.32623326329258) translate(168.53703703703704 97.77777777777777)"/><use xlink:href="#t" transform="matrix(1,0,0,1,103.13540510543837,173.32623326329258) translate(98.78395061728395 124.44444444444446)"/><use xlink:href="#q" transform="matrix(1,0,0,1,103.13540510543837,173.32623326329258) translate(129.64814814814815 124.44444444444446)"/><use xlink:href="#u" transform="matrix(1,0,0,1,103.13540510543837,173.32623326329258) translate(80.88271604938272 151.11111111111111)"/><use xlink:href="#v" transform="matrix(1,0,0,1,103.13540510543837,173.32623326329258) translate(147.54938271604937 151.11111111111111)"/><path d="M361.35 261.25h175.4" stroke="#3a414a" fill="none"/><path d="M361.36 261.75h-.5v-1h.5z" stroke="#3a414a" stroke-width=".05" fill="#3a414a"/><path d="M551.52 261.25l-14.27 4.64v-9.28z" stroke="#3a414a" fill="#3a414a"/><path d="M104.75 565.46a6 6 0 0 1 6-6h132a6 6 0 0 1 6 6v96c-24.05-17.04-39.02-17.04-48.1-17.04-14.4 0-33.55 17.04-47.95 17.04-8.92 0-24.04 0-47.95-17.04z" stroke="#cc4e00" fill="#fff3d9"/><path d="M112.75 574.46a6 6 0 0 1 6-6h132a6 6 0 0 1 6 6v96c-24.05-17.04-39.02-17.04-48.1-17.04-14.4 0-33.55 17.04-47.95 17.04-8.92 0-24.04 0-47.95-17.04z" stroke="#cc4e00" fill="#fff3d9"/><path d="M120.75 583.46a6 6 0 0 1 6-6h132a6 6 0 0 1 6 6v96c-24.05-17.04-39.02-17.04-48.1-17.04-14.4 0-33.55 17.04-47.95 17.04-8.92 0-24.04 0-47.95-17.04z" stroke="#cc4e00" fill="#fff3d9"/><use xlink:href="#w" transform="matrix(1,0,0,1,125.75236755552774,582.4594737071889) translate(40.327160493827165 24.80902777777778)"/><use xlink:href="#x" transform="matrix(1,0,0,1,125.75236755552774,582.4594737071889) translate(17.179012345679013 51.47569444444445)"/><path d="M104.75 408.1a6 6 0 0 1 6-6h132a6 6 0 0 1 6 6v96c-24.05-17.03-39.02-17.03-48.1-17.03-14.4 0-33.55 17.04-47.95 17.04-8.92 0-24.04 0-47.95-17.03z" stroke="#cc4e00" fill="#fff3d9"/><path d="M112.75 417.1a6 6 0 0 1 6-6h132a6 6 0 0 1 6 6v96c-24.05-17.03-39.02-17.03-48.1-17.03-14.4 0-33.55 17.04-47.95 17.04-8.92 0-24.04 0-47.95-17.03z" stroke="#cc4e00" fill="#fff3d9"/><path d="M120.75 426.1a6 6 0 0 1 6-6h132a6 6 0 0 1 6 6v96c-24.05-17.03-39.02-17.03-48.1-17.03-14.4 0-33.55 17.04-47.95 17.04-8.92 0-24.04 0-47.95-17.03z" stroke="#cc4e00" fill="#fff3d9"/><use xlink:href="#y" transform="matrix(1,0,0,1,125.75236755552774,425.10763454317896) translate(2.246913580246911 41.94444444444444)"/><path d="M942.83 311.5a7.8 7.8 0 0 1 7.55-5.8h116a4.6 4.6 0 0 1 4.45 5.8l-28.9 108.4a7.8 7.8 0 0 1-7.55 5.8h-116a4.6 4.6 0 0 1-4.46-5.8z" stroke="#cc4e00" fill="#fff3d9"/><use xlink:href="#z" transform="matrix(1,0,0,1,917.3761717140305,310.68882614896523) translate(21.74574074074074 45.27777777777778)"/><use xlink:href="#A" transform="matrix(1,0,0,1,917.3761717140305,310.68882614896523) translate(40.67166666666667 71.94444444444446)"/><path d="M930.4 487.9a7.8 7.8 0 0 1 7.53-5.8h116a4.6 4.6 0 0 1 4.46 5.8l-28.92 108.4a7.8 7.8 0 0 1-7.55 5.8h-116a4.6 4.6 0 0 1-4.45-5.8z" stroke="#cc4e00" fill="#fff3d9"/><use xlink:href="#B" transform="matrix(1,0,0,1,904.9339170152155,487.10763454317885) translate(47.05438271604939 45.27777777777778)"/><use xlink:href="#C" transform="matrix(1,0,0,1,904.9339170152155,487.10763454317885) translate(44.3445061728395 71.94444444444446)"/><path d="M265.7 462.1h271.06" stroke="#3a414a" fill="none"/><path d="M265.72 462.6h-.5v-1h.5z" stroke="#3a414a" stroke-width=".05" fill="#3a414a"/><path d="M551.52 462.1l-14.26 4.64v-9.27z" stroke="#3a414a" fill="#3a414a"/><path d="M265.7 622.92h137.47a6 6 0 0 0 6-6v-148.8a6 6 0 0 1 6-6h121.58" stroke="#3a414a" fill="none"/><path d="M265.72 623.42h-.5v-1h.5z" stroke="#3a414a" stroke-width=".05" fill="#3a414a"/><path d="M551.52 462.1l-14.26 4.64v-9.27z" stroke="#3a414a" fill="#3a414a"/><path d="M927.4 365.7H826.98a6 6 0 0 0-6 6v84.4a6 6 0 0 1-6 6h-84.53" stroke="#3a414a" fill="none"/><path d="M927.76 366.2h-.37v-1h.63z" stroke="#3a414a" stroke-width=".05" fill="#3a414a"/><path d="M715.68 462.1l14.27-4.63v9.27z" stroke="#3a414a" fill="#3a414a"/><path d="M914.96 542.1h-88.13a6 6 0 0 1-6-6v-68a6 6 0 0 0-6-6h-84.38" stroke="#3a414a" fill="none"/><path d="M915.32 542.6h-.38v-1h.65z" stroke="#3a414a" stroke-width=".05" fill="#3a414a"/><path d="M715.68 462.1l14.27-4.63v9.27z" stroke="#3a414a" fill="#3a414a"/><path d="M104.75 756.68a6 6 0 0 1 6-6h132a6 6 0 0 1 6 6v96c-24.05-17.03-39.02-17.03-48.1-17.03-14.4 0-33.55 17.03-47.95 17.03-8.92 0-24.04 0-47.95-17.03z" stroke="#cc4e00" fill="#fff3d9"/><path d="M112.75 765.68a6 6 0 0 1 6-6h132a6 6 0 0 1 6 6v96c-24.05-17.03-39.02-17.03-48.1-17.03-14.4 0-33.55 17.03-47.95 17.03-8.92 0-24.04 0-47.95-17.03z" stroke="#cc4e00" fill="#fff3d9"/><path d="M120.75 774.68a6 6 0 0 1 6-6h132a6 6 0 0 1 6 6v96c-24.05-17.03-39.02-17.03-48.1-17.03-14.4 0-33.55 17.03-47.95 17.03-8.92 0-24.04 0-47.95-17.03z" stroke="#cc4e00" fill="#fff3d9"/><use xlink:href="#D" transform="matrix(1,0,0,1,125.75236755552774,773.6791916302967) translate(4.746913580246918 28.611111111111114)"/><use xlink:href="#E" transform="matrix(1,0,0,1,125.75236755552774,773.6791916302967) translate(52.89506172839506 28.611111111111114)"/><use xlink:href="#F" transform="matrix(1,0,0,1,125.75236755552774,773.6791916302967) translate(78.75925925925927 28.611111111111114)"/><use xlink:href="#G" transform="matrix(1,0,0,1,125.75236755552774,773.6791916302967) translate(3.543209876543216 55.27777777777778)"/><use xlink:href="#H" transform="matrix(1,0,0,1,125.75236755552774,773.6791916302967) translate(82.4320987654321 55.27777777777778)"/><path d="M265.7 810.68h271.06" stroke="#3a414a" fill="none"/><path d="M265.72 811.18h-.5v-1h.5z" stroke="#3a414a" stroke-width=".05" fill="#3a414a"/><path d="M551.52 810.68l-14.26 4.63v-9.26z" stroke="#3a414a" fill="#3a414a"/><path d="M857.4 664.53a6 6 0 0 1 6-6h148a6 6 0 0 1 6 6v114c-26.72-20.04-43.36-20.04-53.44-20.04-16 0-37.28 20.03-53.28 20.03-9.92 0-26.72 0-53.28-20.04z" stroke="#1071e5" fill="#edf5ff"/><use xlink:href="#I" transform="matrix(1,0,0,1,862.4021032956325,663.5264429373924) translate(50.95679012345679 48.71527777777778)"/><path d="M714.57 810.68h64.9a6 6 0 0 0 6-6v-80.15a6 6 0 0 1 6-6h49.05" stroke="#3a414a" fill="none"/><path d="M714.58 811.18h-.5v-1h.5z" stroke="#3a414a" stroke-width=".05" fill="#3a414a"/><path d="M855.28 718.53l-14.26 4.63v-9.27z" stroke="#3a414a" fill="#3a414a"/><path d="M857.4 810.07a6 6 0 0 1 6-6h148a6 6 0 0 1 6 6v114c-26.72-20.04-43.36-20.04-53.44-20.04-16 0-37.28 20.04-53.28 20.04-9.92 0-26.72 0-53.28-20.04z" fill="#edf5ff"/><path d="M882.32 804.14h19.86m9.93-.02h19.87m9.93 0l19.86-.02m9.92 0l19.86-.02m9.93 0h9.93l.94.07.92.22.87.36.8.5.72.6.6.72.5.8.36.87.23.9v9.6m0 9.57l.02 19.15m0 9.58l.02 19.15m0 9.58l.02 19.16m0 9.58v9.57l-8-5.47m-8.32-5l-3.53-1.94-7.33-3.2-6.38-2.1-.65-.14m-9.55-1.74l-1.5-.2-8.2-.25-1.94.1-2.35.34-3.02.73-2 .7m-8.8 3.76l-1.37.63-15.76 7.9m-8.68 4.02l-2 .7-3.02.72-2.37.34-1.95.1-8.88-.33-.78-.1m-9.5-1.8l-1.43-.34-6.5-2.2-7.46-3.38-2.48-1.4m-8.3-4.97l-7.96-5.52V893.6m0-10.45v-20.88m0-10.44v-20.88m0-10.44v-10.43l.08-.94.22-.9.36-.88.5-.8.6-.72.72-.6.8-.5.87-.36.9-.22h9.94" stroke="#1071e5" fill="none"/><use xlink:href="#J" transform="matrix(1,0,0,1,862.4021032956325,809.0734705128788) translate(52.839506172839506 48.71527777777778)"/><path d="M857.4 955.62a6 6 0 0 1 6-6h148a6 6 0 0 1 6 6v114c-26.72-20.04-43.36-20.04-53.44-20.04-16 0-37.28 20.04-53.28 20.04-9.92 0-26.72 0-53.28-20.04z" stroke="#1071e5" fill="#edf5ff"/><use xlink:href="#K" transform="matrix(1,0,0,1,862.4021032956325,954.6204980883651) translate(23.271604938271608 48.71527777777778)"/><use xlink:href="#L" transform="matrix(1,0,0,1,862.4021032956325,954.6204980883651) translate(100.8641975308642 48.71527777777778)"/><path d="M857.4 1101.17a6 6 0 0 1 6-6h148a6 6 0 0 1 6 6v114c-26.72-20.04-43.36-20.04-53.44-20.04-16 0-37.28 20.04-53.28 20.04-9.92 0-26.72 0-53.28-20.04z" stroke="#1071e5" fill="#edf5ff"/><use xlink:href="#K" transform="matrix(1,0,0,1,862.4021032956325,1100.1675256638514) translate(10.339506172839506 48.71527777777778)"/><use xlink:href="#M" transform="matrix(1,0,0,1,862.4021032956325,1100.1675256638514) translate(87.9320987654321 48.71527777777778)"/><path d="M714.57 811.4h64.9a6 6 0 0 1 6 6v40.67a6 6 0 0 0 6 6h49.05" stroke="#3a414a" fill="none"/><path d="M714.58 811.9h-.5v-1h.5z" stroke="#3a414a" stroke-width=".05" fill="#3a414a"/><path d="M855.28 864.07l-14.26 4.64v-9.26z" stroke="#3a414a" fill="#3a414a"/><path d="M714.57 810.68h64.9a6 6 0 0 1 6 6v186.94a6 6 0 0 0 6 6h49.05" stroke="#3a414a" fill="none"/><path d="M714.58 811.18h-.5v-1h.5z" stroke="#3a414a" stroke-width=".05" fill="#3a414a"/><path d="M855.28 1009.62l-14.26 4.64V1005z" stroke="#3a414a" fill="#3a414a"/><path d="M714.57 810.68h64.9a6 6 0 0 1 6 6v338.02a6 6 0 0 0 6 6h49.05" stroke="#3a414a" fill="none"/><path d="M714.58 811.18h-.5v-1h.5z" stroke="#3a414a" stroke-width=".05" fill="#3a414a"/><path d="M855.28 1160.7l-14.26 4.63v-9.26z" stroke="#3a414a" fill="#3a414a"/><path d="M36.95 1523.04a6 6 0 0 1 6-6h148a6 6 0 0 1 6 6v114C170.23 1617 153.6 1617 143.5 1617c-16 0-37.27 20.04-53.27 20.04-9.92 0-26.72 0-53.28-20.04z" stroke="#1071e5" fill="#edf5ff"/><g><use xlink:href="#N" transform="matrix(1,0,0,1,41.9539549103977,1522.044044036421) translate(10.987654320987644 48.71527777777778)"/><use xlink:href="#O" transform="matrix(1,0,0,1,41.9539549103977,1522.044044036421) translate(97.1604938271605 48.71527777777778)"/></g><path d="M247.95 1523.04a6 6 0 0 1 6-6h148a6 6 0 0 1 6 6v114C381.23 1617 364.6 1617 354.5 1617c-16 0-37.27 20.04-53.27 20.04-9.92 0-26.72 0-53.28-20.04z" stroke="#1071e5" fill="#edf5ff"/><g><use xlink:href="#P" transform="matrix(1,0,0,1,252.9539549103977,1522.044044036421) translate(5.308641975308632 37.46527777777778)"/><use xlink:href="#Q" transform="matrix(1,0,0,1,252.9539549103977,1522.044044036421) translate(33.641975308641975 64.13194444444446)"/><use xlink:href="#R" transform="matrix(1,0,0,1,252.9539549103977,1522.044044036421) translate(87.96296296296296 64.13194444444446)"/></g><path d="M458.95 1523.04a6 6 0 0 1 6-6h148a6 6 0 0 1 6 6v114C592.23 1617 575.6 1617 565.5 1617c-16 0-37.27 20.04-53.27 20.04-9.92 0-26.72 0-53.28-20.04z" stroke="#1071e5" fill="#edf5ff"/><g><use xlink:href="#P" transform="matrix(1,0,0,1,463.95395491039767,1522.044044036421) translate(5.308641975308632 37.46527777777778)"/><use xlink:href="#S" transform="matrix(1,0,0,1,463.95395491039767,1522.044044036421) translate(33.641975308641975 64.13194444444446)"/><use xlink:href="#R" transform="matrix(1,0,0,1,463.95395491039767,1522.044044036421) translate(87.96296296296296 64.13194444444446)"/></g><path d="M669.95 1523.04a6 6 0 0 1 6-6h148a6 6 0 0 1 6 6v114C803.23 1617 786.6 1617 776.5 1617c-16 0-37.27 20.04-53.27 20.04-9.92 0-26.72 0-53.28-20.04z" stroke="#1071e5" fill="#edf5ff"/><g><use xlink:href="#P" transform="matrix(1,0,0,1,674.9539549103977,1522.044044036421) translate(5.308641975308632 37.46527777777778)"/><use xlink:href="#T" transform="matrix(1,0,0,1,674.9539549103977,1522.044044036421) translate(36.72839506172839 64.13194444444446)"/><use xlink:href="#R" transform="matrix(1,0,0,1,674.9539549103977,1522.044044036421) translate(84.87654320987654 64.13194444444446)"/></g><path d="M880.95 1523.04a6 6 0 0 1 6-6h148a6 6 0 0 1 6 6v114C1014.23 1617 997.6 1617 987.5 1617c-16 0-37.27 20.04-53.27 20.04-9.92 0-26.72 0-53.28-20.04z" stroke="#1071e5" fill="#edf5ff"/><g><use xlink:href="#U" transform="matrix(1,0,0,1,885.9539549103977,1522.044044036421) translate(34.320987654320994 48.71527777777778)"/><use xlink:href="#R" transform="matrix(1,0,0,1,885.9539549103977,1522.044044036421) translate(87.28395061728395 48.71527777777778)"/></g><path d="M552.64 1249.85h-429.7a6 6 0 0 0-6 6v244.35" stroke="#3a414a" fill="none"/><path d="M553.14 1250.35h-.5v-1h.5z" stroke="#3a414a" stroke-width=".05" fill="#3a414a"/><path d="M116.95 1514.96l-4.63-14.26h9.27z" stroke="#3a414a" fill="#3a414a"/><path d="M633.6 1310.8v96.64a6 6 0 0 1-6 6H333.95a6 6 0 0 0-6 6v80.76" stroke="#3a414a" fill="none"/><path d="M634.1 1310.82h-1v-.5h1z" stroke="#3a414a" stroke-width=".05" fill="#3a414a"/><path d="M327.95 1514.96l-4.63-14.26h9.27z" stroke="#3a414a" fill="#3a414a"/><path d="M633.6 1310.8v96.64a6 6 0 0 1-6 6h-82.65a6 6 0 0 0-6 6v80.76" stroke="#3a414a" fill="none"/><path d="M634.1 1310.82h-1v-.5h1z" stroke="#3a414a" stroke-width=".05" fill="#3a414a"/><path d="M538.95 1514.96l-4.63-14.26h9.27z" stroke="#3a414a" fill="#3a414a"/><path d="M633.6 1310.8v96.97a6 6 0 0 0 6 6h104.35a6 6 0 0 1 6 6v80.43" stroke="#3a414a" fill="none"/><path d="M634.1 1310.82h-1v-.5h1z" stroke="#3a414a" stroke-width=".05" fill="#3a414a"/><path d="M749.95 1514.96l-4.63-14.26h9.27z" stroke="#3a414a" fill="#3a414a"/><path d="M714.57 1249.85h240.38a6 6 0 0 1 6 6v244.35" stroke="#3a414a" fill="none"/><path d="M714.58 1250.35h-.5v-1h.5z" stroke="#3a414a" stroke-width=".05" fill="#3a414a"/><path d="M960.95 1514.96l-4.63-14.26h9.27z" stroke="#3a414a" fill="#3a414a"/><defs><path fill="#3a414a" d="M143 4C61 4 22-44 18-125c-5-107 100-154 193-111 17 8 29 25 37 43l-32 9c-13-25-37-40-76-40-61 0-88 39-88 99 0 61 29 100 91 101 35 0 62-11 79-27v-45h-74v-28h105v86C228-13 192 4 143 4" id="V"/><path fill="#3a414a" d="M100-194c63 0 86 42 84 106H49c0 40 14 67 53 68 26 1 43-12 49-29l28 8c-11 28-37 45-77 45C44 4 14-33 15-96c1-61 26-98 85-98zm52 81c6-60-76-77-97-28-3 7-6 17-6 28h103" id="W"/><path fill="#3a414a" d="M117-194c89-4 53 116 60 194h-32v-121c0-31-8-49-39-48C34-167 62-67 57 0H25l-1-190h30c1 10-1 24 2 32 11-22 29-35 61-36" id="X"/><path fill="#3a414a" d="M100-194c62-1 85 37 85 99 1 63-27 99-86 99S16-35 15-95c0-66 28-99 85-99zM99-20c44 1 53-31 53-75 0-43-8-75-51-75s-53 32-53 75 10 74 51 75" id="Y"/><path fill="#3a414a" d="M210-169c-67 3-38 105-44 169h-31v-121c0-29-5-50-35-48C34-165 62-65 56 0H25l-1-190h30c1 10-1 24 2 32 10-44 99-50 107 0 11-21 27-35 58-36 85-2 47 119 55 194h-31v-121c0-29-5-49-35-48" id="Z"/><g id="a"><use transform="matrix(0.06172839506172839,0,0,0.06172839506172839,0,0)" xlink:href="#V"/><use transform="matrix(0.06172839506172839,0,0,0.06172839506172839,17.28395061728395,0)" xlink:href="#W"/><use transform="matrix(0.06172839506172839,0,0,0.06172839506172839,29.629629629629626,0)" xlink:href="#X"/><use transform="matrix(0.06172839506172839,0,0,0.06172839506172839,41.9753086419753,0)" xlink:href="#Y"/><use transform="matrix(0.06172839506172839,0,0,0.06172839506172839,54.32098765432098,0)" xlink:href="#Z"/><use transform="matrix(0.06172839506172839,0,0,0.06172839506172839,72.77777777777777,0)" xlink:href="#W"/></g><path fill="#3a414a" d="M30-248c118-7 216 8 213 122C240-48 200 0 122 0H30v-248zM63-27c89 8 146-16 146-99s-60-101-146-95v194" id="aa"/><path fill="#3a414a" d="M206 0h-36l-40-164L89 0H53L-1-190h32L70-26l43-164h34l41 164 42-164h31" id="ab"/><path fill="#3a414a" d="M24 0v-261h32V0H24" id="ac"/><path fill="#3a414a" d="M141-36C126-15 110 5 73 4 37 3 15-17 15-53c-1-64 63-63 125-63 3-35-9-54-41-54-24 1-41 7-42 31l-33-3c5-37 33-52 76-52 45 0 72 20 72 64v82c-1 20 7 32 28 27v20c-31 9-61-2-59-35zM48-53c0 20 12 33 32 33 41-3 63-29 60-74-43 2-92-5-92 41" id="ad"/><path fill="#3a414a" d="M85-194c31 0 48 13 60 33l-1-100h32l1 261h-30c-2-10 0-23-3-31C134-8 116 4 85 4 32 4 16-35 15-94c0-66 23-100 70-100zm9 24c-40 0-46 34-46 75 0 40 6 74 45 74 42 0 51-32 51-76 0-42-9-74-50-73" id="ae"/><g id="b"><use transform="matrix(0.06172839506172839,0,0,0.06172839506172839,0,0)" xlink:href="#aa"/><use transform="matrix(0.06172839506172839,0,0,0.06172839506172839,15.987654320987653,0)" xlink:href="#Y"/><use transform="matrix(0.06172839506172839,0,0,0.06172839506172839,28.333333333333332,0)" xlink:href="#ab"/><use transform="matrix(0.06172839506172839,0,0,0.06172839506172839,44.32098765432099,0)" xlink:href="#X"/><use transform="matrix(0.06172839506172839,0,0,0.06172839506172839,56.666666666666664,0)" xlink:href="#ac"/><use transform="matrix(0.06172839506172839,0,0,0.06172839506172839,61.54320987654321,0)" xlink:href="#Y"/><use transform="matrix(0.06172839506172839,0,0,0.06172839506172839,73.88888888888889,0)" xlink:href="#ad"/><use transform="matrix(0.06172839506172839,0,0,0.06172839506172839,86.23456790123457,0)" xlink:href="#ae"/></g><g id="c"><use transform="matrix(0.06172839506172839,0,0,0.06172839506172839,0,0)" xlink:href="#ad"/><use transform="matrix(0.06172839506172839,0,0,0.06172839506172839,12.345679012345679,0)" xlink:href="#X"/><use transform="matrix(0.06172839506172839,0,0,0.06172839506172839,24.691358024691358,0)" xlink:href="#ae"/></g><path fill="#3a414a" d="M160-131c35 5 61 23 61 61C221 17 115-2 30 0v-248c76 3 177-17 177 60 0 33-19 50-47 57zm-97-11c50-1 110 9 110-42 0-47-63-36-110-37v79zm0 115c55-2 124 14 124-45 0-56-70-42-124-44v89" id="af"/><path fill="#3a414a" d="M84 4C-5 8 30-112 23-190h32v120c0 31 7 50 39 49 72-2 45-101 50-169h31l1 190h-30c-1-10 1-25-2-33-11 22-28 36-60 37" id="ag"/><path fill="#3a414a" d="M24-231v-30h32v30H24zM24 0v-190h32V0H24" id="ah"/><g id="d"><use transform="matrix(0.06172839506172839,0,0,0.06172839506172839,0,0)" xlink:href="#af"/><use transform="matrix(0.06172839506172839,0,0,0.06172839506172839,14.814814814814813,0)" xlink:href="#ag"/><use transform="matrix(0.06172839506172839,0,0,0.06172839506172839,27.160493827160494,0)" xlink:href="#ah"/><use transform="matrix(0.06172839506172839,0,0,0.06172839506172839,32.03703703703704,0)" xlink:href="#ac"/><use transform="matrix(0.06172839506172839,0,0,0.06172839506172839,36.91358024691358,0)" xlink:href="#ae"/></g><path fill="#3a414a" d="M33 0v-248h34V0H33" id="ai"/><g id="e"><use transform="matrix(0.06172839506172839,0,0,0.06172839506172839,0,0)" xlink:href="#ai"/><use transform="matrix(0.06172839506172839,0,0,0.06172839506172839,6.172839506172839,0)" xlink:href="#ac"/><use transform="matrix(0.06172839506172839,0,0,0.06172839506172839,11.049382716049383,0)" xlink:href="#ac"/><use transform="matrix(0.06172839506172839,0,0,0.06172839506172839,15.925925925925926,0)" xlink:href="#ag"/><use transform="matrix(0.06172839506172839,0,0,0.06172839506172839,28.271604938271604,0)" xlink:href="#Z"/><use transform="matrix(0.06172839506172839,0,0,0.06172839506172839,46.72839506172839,0)" xlink:href="#ah"/><use transform="matrix(0.06172839506172839,0,0,0.06172839506172839,51.60493827160494,0)" xlink:href="#X"/><use transform="matrix(0.06172839506172839,0,0,0.06172839506172839,63.95061728395061,0)" xlink:href="#ad"/></g><path fill="#3a414a" d="M212-179c-10-28-35-45-73-45-59 0-87 40-87 99 0 60 29 101 89 101 43 0 62-24 78-52l27 14C228-24 195 4 139 4 59 4 22-46 18-125c-6-104 99-153 187-111 19 9 31 26 39 46" id="aj"/><path fill="#3a414a" d="M30 0v-248h33v221h125V0H30" id="ak"/><g id="f"><use transform="matrix(0.06172839506172839,0,0,0.06172839506172839,0,0)" xlink:href="#af"/><use transform="matrix(0.06172839506172839,0,0,0.06172839506172839,14.814814814814813,0)" xlink:href="#aj"/><use transform="matrix(0.06172839506172839,0,0,0.06172839506172839,30.80246913580247,0)" xlink:href="#ak"/></g><path fill="#3a414a" d="M96-169c-40 0-48 33-48 73s9 75 48 75c24 0 41-14 43-38l32 2c-6 37-31 61-74 61-59 0-76-41-82-99-10-93 101-131 147-64 4 7 5 14 7 22l-32 3c-4-21-16-35-41-35" id="al"/><path fill="#3a414a" d="M108 0H70L1-190h34L89-25l56-165h34" id="am"/><path fill="#3a414a" d="M59-47c-2 24 18 29 38 22v24C64 9 27 4 27-40v-127H5v-23h24l9-43h21v43h35v23H59v120" id="an"/><g id="g"><use transform="matrix(0.06172839506172839,0,0,0.06172839506172839,0,0)" xlink:href="#aa"/><use transform="matrix(0.06172839506172839,0,0,0.06172839506172839,15.987654320987653,0)" xlink:href="#W"/><use transform="matrix(0.06172839506172839,0,0,0.06172839506172839,28.333333333333332,0)" xlink:href="#al"/><use transform="matrix(0.06172839506172839,0,0,0.06172839506172839,39.44444444444444,0)" xlink:href="#Y"/><use transform="matrix(0.06172839506172839,0,0,0.06172839506172839,51.79012345679012,0)" xlink:href="#X"/><use transform="matrix(0.06172839506172839,0,0,0.06172839506172839,64.1358024691358,0)" xlink:href="#am"/><use transform="matrix(0.06172839506172839,0,0,0.06172839506172839,75.24691358024691,0)" xlink:href="#Y"/><use transform="matrix(0.06172839506172839,0,0,0.06172839506172839,87.5925925925926,0)" xlink:href="#ac"/><use transform="matrix(0.06172839506172839,0,0,0.06172839506172839,92.46913580246914,0)" xlink:href="#ag"/><use transform="matrix(0.06172839506172839,0,0,0.06172839506172839,104.81481481481482,0)" xlink:href="#an"/><use transform="matrix(0.06172839506172839,0,0,0.06172839506172839,110.98765432098766,0)" xlink:href="#ah"/><use transform="matrix(0.06172839506172839,0,0,0.06172839506172839,115.8641975308642,0)" xlink:href="#Y"/><use transform="matrix(0.06172839506172839,0,0,0.06172839506172839,128.20987654320987,0)" xlink:href="#X"/></g><path fill="#3a414a" d="M205 0l-28-72H64L36 0H1l101-248h38L239 0h-34zm-38-99l-47-123c-12 45-31 82-46 123h93" id="ao"/><path fill="#3a414a" d="M177-190C167-65 218 103 67 71c-23-6-38-20-44-43l32-5c15 47 100 32 89-28v-30C133-14 115 1 83 1 29 1 15-40 15-95c0-56 16-97 71-98 29-1 48 16 59 35 1-10 0-23 2-32h30zM94-22c36 0 50-32 50-73 0-42-14-75-50-75-39 0-46 34-46 75s6 73 46 73" id="ap"/><g id="h"><use transform="matrix(0.06172839506172839,0,0,0.06172839506172839,0,0)" xlink:href="#ao"/><use transform="matrix(0.06172839506172839,0,0,0.06172839506172839,14.814814814814813,0)" xlink:href="#ac"/><use transform="matrix(0.06172839506172839,0,0,0.06172839506172839,19.691358024691354,0)" xlink:href="#ah"/><use transform="matrix(0.06172839506172839,0,0,0.06172839506172839,24.5679012345679,0)" xlink:href="#ap"/><use transform="matrix(0.06172839506172839,0,0,0.06172839506172839,36.913580246913575,0)" xlink:href="#X"/><use transform="matrix(0.06172839506172839,0,0,0.06172839506172839,49.25925925925925,0)" xlink:href="#Z"/><use transform="matrix(0.06172839506172839,0,0,0.06172839506172839,67.71604938271604,0)" xlink:href="#W"/><use transform="matrix(0.06172839506172839,0,0,0.06172839506172839,80.06172839506172,0)" xlink:href="#X"/><use transform="matrix(0.06172839506172839,0,0,0.06172839506172839,92.4074074074074,0)" xlink:href="#an"/></g><path fill="#3a414a" d="M114-163C36-179 61-72 57 0H25l-1-190h30c1 12-1 29 2 39 6-27 23-49 58-41v29" id="aq"/><path fill="#3a414a" d="M135-143c-3-34-86-38-87 0 15 53 115 12 119 90S17 21 10-45l28-5c4 36 97 45 98 0-10-56-113-15-118-90-4-57 82-63 122-42 12 7 21 19 24 35" id="ar"/><g id="i"><use transform="matrix(0.06172839506172839,0,0,0.06172839506172839,0,0)" xlink:href="#Z"/><use transform="matrix(0.06172839506172839,0,0,0.06172839506172839,18.456790123456788,0)" xlink:href="#W"/><use transform="matrix(0.06172839506172839,0,0,0.06172839506172839,30.80246913580247,0)" xlink:href="#an"/><use transform="matrix(0.06172839506172839,0,0,0.06172839506172839,36.97530864197531,0)" xlink:href="#aq"/><use transform="matrix(0.06172839506172839,0,0,0.06172839506172839,44.32098765432099,0)" xlink:href="#ah"/><use transform="matrix(0.06172839506172839,0,0,0.06172839506172839,49.19753086419753,0)" xlink:href="#al"/><use transform="matrix(0.06172839506172839,0,0,0.06172839506172839,60.308641975308646,0)" xlink:href="#ar"/></g><g id="j"><use transform="matrix(0.06172839506172839,0,0,0.06172839506172839,0,0)" xlink:href="#ao"/><use transform="matrix(0.06172839506172839,0,0,0.06172839506172839,14.814814814814813,0)" xlink:href="#ap"/><use transform="matrix(0.06172839506172839,0,0,0.06172839506172839,27.160493827160494,0)" xlink:href="#ap"/><use transform="matrix(0.06172839506172839,0,0,0.06172839506172839,39.50617283950617,0)" xlink:href="#aq"/><use transform="matrix(0.06172839506172839,0,0,0.06172839506172839,46.85185185185185,0)" xlink:href="#W"/><use transform="matrix(0.06172839506172839,0,0,0.06172839506172839,59.197530864197525,0)" xlink:href="#ap"/><use transform="matrix(0.06172839506172839,0,0,0.06172839506172839,71.5432098765432,0)" xlink:href="#ad"/><use transform="matrix(0.06172839506172839,0,0,0.06172839506172839,83.88888888888889,0)" xlink:href="#an"/><use transform="matrix(0.06172839506172839,0,0,0.06172839506172839,90.06172839506172,0)" xlink:href="#W"/></g><path fill="#3a414a" d="M240 0l2-218c-23 76-54 145-80 218h-23L58-218 59 0H30v-248h44l77 211c21-75 51-140 76-211h43V0h-30" id="as"/><g id="k"><use transform="matrix(0.06172839506172839,0,0,0.06172839506172839,0,0)" xlink:href="#as"/><use transform="matrix(0.06172839506172839,0,0,0.06172839506172839,18.456790123456788,0)" xlink:href="#W"/><use transform="matrix(0.06172839506172839,0,0,0.06172839506172839,30.80246913580247,0)" xlink:href="#an"/><use transform="matrix(0.06172839506172839,0,0,0.06172839506172839,36.97530864197531,0)" xlink:href="#aq"/><use transform="matrix(0.06172839506172839,0,0,0.06172839506172839,44.32098765432099,0)" xlink:href="#ah"/><use transform="matrix(0.06172839506172839,0,0,0.06172839506172839,49.19753086419753,0)" xlink:href="#al"/><use transform="matrix(0.06172839506172839,0,0,0.06172839506172839,60.308641975308646,0)" xlink:href="#ar"/></g><path fill="#cc4e00" d="M135-150c-39-12-60 13-60 57V0H25l-1-190h47c2 13-1 29 3 40 6-28 27-53 61-41v41" id="at"/><path fill="#cc4e00" d="M185-48c-13 30-37 53-82 52C43 2 14-33 14-96s30-98 90-98c62 0 83 45 84 108H66c0 31 8 55 39 56 18 0 30-7 34-22zm-45-69c5-46-57-63-70-21-2 6-4 13-4 21h74" id="au"/><path fill="#cc4e00" d="M121-226c-27-7-43 5-38 36h38v33H83V0H34v-157H6v-33h28c-9-59 32-81 87-68v32" id="av"/><path fill="#cc4e00" d="M135-194c87-1 58 113 63 194h-50c-7-57 23-157-34-157-59 0-34 97-39 157H25l-1-190h47c2 12-1 28 3 38 12-26 28-41 61-42" id="aw"/><path fill="#cc4e00" d="M190-63c-7 42-38 67-86 67-59 0-84-38-90-98-12-110 154-137 174-36l-49 2c-2-19-15-32-35-32-30 0-35 28-38 64-6 74 65 87 74 30" id="ax"/><g id="l"><use transform="matrix(0.06172839506172839,0,0,0.06172839506172839,0,0)" xlink:href="#at"/><use transform="matrix(0.06172839506172839,0,0,0.06172839506172839,8.641975308641975,0)" xlink:href="#au"/><use transform="matrix(0.06172839506172839,0,0,0.06172839506172839,20.98765432098765,0)" xlink:href="#av"/><use transform="matrix(0.06172839506172839,0,0,0.06172839506172839,28.33333333333333,0)" xlink:href="#au"/><use transform="matrix(0.06172839506172839,0,0,0.06172839506172839,40.679012345679006,0)" xlink:href="#at"/><use transform="matrix(0.06172839506172839,0,0,0.06172839506172839,49.32098765432098,0)" xlink:href="#au"/><use transform="matrix(0.06172839506172839,0,0,0.06172839506172839,61.66666666666666,0)" xlink:href="#aw"/><use transform="matrix(0.06172839506172839,0,0,0.06172839506172839,75.18518518518518,0)" xlink:href="#ax"/><use transform="matrix(0.06172839506172839,0,0,0.06172839506172839,87.53086419753086,0)" xlink:href="#au"/></g><path fill="#cc4e00" d="M195-6C206 82 75 100 31 46c-4-6-6-13-8-21l49-6c3 16 16 24 34 25 40 0 42-37 40-79-11 22-30 35-61 35-53 0-70-43-70-97 0-56 18-96 73-97 30 0 46 14 59 34l2-30h47zm-90-29c32 0 41-27 41-63 0-35-9-62-40-62-32 0-39 29-40 63 0 36 9 62 39 62" id="ay"/><path fill="#cc4e00" d="M110-194c64 0 96 36 96 99 0 64-35 99-97 99-61 0-95-36-95-99 0-62 34-99 96-99zm-1 164c35 0 45-28 45-65 0-40-10-65-43-65-34 0-45 26-45 65 0 36 10 65 43 65" id="az"/><path fill="#cc4e00" d="M220-157c-53 9-28 100-34 157h-49v-107c1-27-5-49-29-50C55-147 81-57 75 0H25l-1-190h47c2 12-1 28 3 38 10-53 101-56 108 0 13-22 24-43 59-42 82 1 51 116 57 194h-49v-107c-1-25-5-48-29-50" id="aA"/><g id="m"><use transform="matrix(0.06172839506172839,0,0,0.06172839506172839,0,0)" xlink:href="#ay"/><use transform="matrix(0.06172839506172839,0,0,0.06172839506172839,13.518518518518517,0)" xlink:href="#au"/><use transform="matrix(0.06172839506172839,0,0,0.06172839506172839,25.864197530864196,0)" xlink:href="#aw"/><use transform="matrix(0.06172839506172839,0,0,0.06172839506172839,39.382716049382715,0)" xlink:href="#az"/><use transform="matrix(0.06172839506172839,0,0,0.06172839506172839,52.901234567901234,0)" xlink:href="#aA"/><use transform="matrix(0.06172839506172839,0,0,0.06172839506172839,72.65432098765432,0)" xlink:href="#au"/></g><path fill="#cc4e00" d="M123 10C108 53 80 86 19 72V37c35 8 53-11 59-39L3-190h52l48 148c12-52 28-100 44-148h51" id="aB"/><path fill="#cc4e00" d="M25 0v-261h50V0H25" id="aC"/><g id="n"><use transform="matrix(0.06172839506172839,0,0,0.06172839506172839,0,0)" xlink:href="#aB"/><use transform="matrix(0.06172839506172839,0,0,0.06172839506172839,12.345679012345679,0)" xlink:href="#aA"/><use transform="matrix(0.06172839506172839,0,0,0.06172839506172839,32.098765432098766,0)" xlink:href="#aC"/></g><path fill="#cc4e00" d="M25-224v-37h50v37H25zM25 0v-190h50V0H25" id="aD"/><g id="o"><use transform="matrix(0.06172839506172839,0,0,0.06172839506172839,0,0)" xlink:href="#av"/><use transform="matrix(0.06172839506172839,0,0,0.06172839506172839,7.345679012345679,0)" xlink:href="#aD"/><use transform="matrix(0.06172839506172839,0,0,0.06172839506172839,13.518518518518519,0)" xlink:href="#aC"/><use transform="matrix(0.06172839506172839,0,0,0.06172839506172839,19.691358024691358,0)" xlink:href="#au"/></g><path fill="#cc4e00" d="M101-234c-31-9-42 10-38 44h38v23H63V0H32v-167H5v-23h27c-7-52 17-82 69-68v24" id="aE"/><path fill="#cc4e00" d="M141-36C126-15 110 5 73 4 37 3 15-17 15-53c-1-64 63-63 125-63 3-35-9-54-41-54-24 1-41 7-42 31l-33-3c5-37 33-52 76-52 45 0 72 20 72 64v82c-1 20 7 32 28 27v20c-31 9-61-2-59-35zM48-53c0 20 12 33 32 33 41-3 63-29 60-74-43 2-92-5-92 41" id="aF"/><path fill="#cc4e00" d="M135-143c-3-34-86-38-87 0 15 53 115 12 119 90S17 21 10-45l28-5c4 36 97 45 98 0-10-56-113-15-118-90-4-57 82-63 122-42 12 7 21 19 24 35" id="aG"/><path fill="#cc4e00" d="M59-47c-2 24 18 29 38 22v24C64 9 27 4 27-40v-127H5v-23h24l9-43h21v43h35v23H59v120" id="aH"/><g id="p"><use transform="matrix(0.06172839506172839,0,0,0.06172839506172839,0,0)" xlink:href="#aE"/><use transform="matrix(0.06172839506172839,0,0,0.06172839506172839,6.172839506172839,0)" xlink:href="#aF"/><use transform="matrix(0.06172839506172839,0,0,0.06172839506172839,18.51851851851852,0)" xlink:href="#aG"/><use transform="matrix(0.06172839506172839,0,0,0.06172839506172839,29.62962962962963,0)" xlink:href="#aH"/><use transform="matrix(0.06172839506172839,0,0,0.06172839506172839,35.80246913580247,0)" xlink:href="#aF"/></g><path fill="#cc4e00" d="M84 4C-5 8 30-112 23-190h32v120c0 31 7 50 39 49 72-2 45-101 50-169h31l1 190h-30c-1-10 1-25-2-33-11 22-28 36-60 37" id="aI"/><path fill="#cc4e00" d="M114-163C36-179 61-72 57 0H25l-1-190h30c1 12-1 29 2 39 6-27 23-49 58-41v29" id="aJ"/><path fill="#cc4e00" d="M24 0v-261h32V0H24" id="aK"/><g id="q"><use transform="matrix(0.06172839506172839,0,0,0.06172839506172839,0,0)" xlink:href="#aI"/><use transform="matrix(0.06172839506172839,0,0,0.06172839506172839,12.345679012345679,0)" xlink:href="#aJ"/><use transform="matrix(0.06172839506172839,0,0,0.06172839506172839,19.691358024691358,0)" xlink:href="#aK"/></g><g id="r"><use transform="matrix(0.06172839506172839,0,0,0.06172839506172839,0,0)" xlink:href="#aE"/><use transform="matrix(0.06172839506172839,0,0,0.06172839506172839,6.172839506172839,0)" xlink:href="#aF"/><use transform="matrix(0.06172839506172839,0,0,0.06172839506172839,18.51851851851852,0)" xlink:href="#aG"/><use transform="matrix(0.06172839506172839,0,0,0.06172839506172839,29.62962962962963,0)" xlink:href="#aH"/><use transform="matrix(0.06172839506172839,0,0,0.06172839506172839,35.80246913580247,0)" xlink:href="#aF"/></g><path fill="#cc4e00" d="M96-169c-40 0-48 33-48 73s9 75 48 75c24 0 41-14 43-38l32 2c-6 37-31 61-74 61-59 0-76-41-82-99-10-93 101-131 147-64 4 7 5 14 7 22l-32 3c-4-21-16-35-41-35" id="aL"/><path fill="#cc4e00" d="M85-194c31 0 48 13 60 33l-1-100h32l1 261h-30c-2-10 0-23-3-31C134-8 116 4 85 4 32 4 16-35 15-94c0-66 23-100 70-100zm9 24c-40 0-46 34-46 75 0 40 6 74 45 74 42 0 51-32 51-76 0-42-9-74-50-73" id="aM"/><path fill="#cc4e00" d="M117-194c89-4 53 116 60 194h-32v-121c0-31-8-49-39-48C34-167 62-67 57 0H25l-1-190h30c1 10-1 24 2 32 11-22 29-35 61-36" id="aN"/><g id="s"><use transform="matrix(0.06172839506172839,0,0,0.06172839506172839,0,0)" xlink:href="#aL"/><use transform="matrix(0.06172839506172839,0,0,0.06172839506172839,11.11111111111111,0)" xlink:href="#aM"/><use transform="matrix(0.06172839506172839,0,0,0.06172839506172839,23.45679012345679,0)" xlink:href="#aN"/><use transform="matrix(0.06172839506172839,0,0,0.06172839506172839,35.80246913580247,0)" xlink:href="#aF"/></g><path fill="#cc4e00" d="M177-190C167-65 218 103 67 71c-23-6-38-20-44-43l32-5c15 47 100 32 89-28v-30C133-14 115 1 83 1 29 1 15-40 15-95c0-56 16-97 71-98 29-1 48 16 59 35 1-10 0-23 2-32h30zM94-22c36 0 50-32 50-73 0-42-14-75-50-75-39 0-46 34-46 75s6 73 46 73" id="aO"/><g id="t"><use transform="matrix(0.06172839506172839,0,0,0.06172839506172839,0,0)" xlink:href="#aO"/><use transform="matrix(0.06172839506172839,0,0,0.06172839506172839,12.345679012345679,0)" xlink:href="#aH"/><use transform="matrix(0.06172839506172839,0,0,0.06172839506172839,18.51851851851852,0)" xlink:href="#aE"/></g><path fill="#cc4e00" d="M115-194c53 0 69 39 70 98 0 66-23 100-70 100C84 3 66-7 56-30L54 0H23l1-261h32v101c10-23 28-34 59-34zm-8 174c40 0 45-34 45-75 0-40-5-75-45-74-42 0-51 32-51 76 0 43 10 73 51 73" id="aP"/><path fill="#cc4e00" d="M115-194c55 1 70 41 70 98S169 2 115 4C84 4 66-9 55-30l1 105H24l-1-265h31l2 30c10-21 28-34 59-34zm-8 174c40 0 45-34 45-75s-6-73-45-74c-42 0-51 32-51 76 0 43 10 73 51 73" id="aQ"/><g id="u"><use transform="matrix(0.06172839506172839,0,0,0.06172839506172839,0,0)" xlink:href="#aM"/><use transform="matrix(0.06172839506172839,0,0,0.06172839506172839,12.345679012345679,0)" xlink:href="#aP"/><use transform="matrix(0.06172839506172839,0,0,0.06172839506172839,24.691358024691358,0)" xlink:href="#aG"/><use transform="matrix(0.06172839506172839,0,0,0.06172839506172839,35.80246913580247,0)" xlink:href="#aN"/><use transform="matrix(0.06172839506172839,0,0,0.06172839506172839,48.148148148148145,0)" xlink:href="#aQ"/></g><g id="v"><use transform="matrix(0.06172839506172839,0,0,0.06172839506172839,0,0)" xlink:href="#aI"/><use transform="matrix(0.06172839506172839,0,0,0.06172839506172839,12.345679012345679,0)" xlink:href="#aJ"/><use transform="matrix(0.06172839506172839,0,0,0.06172839506172839,19.691358024691358,0)" xlink:href="#aK"/></g><path fill="#cc4e00" d="M160-131c35 5 61 23 61 61C221 17 115-2 30 0v-248c76 3 177-17 177 60 0 33-19 50-47 57zm-97-11c50-1 110 9 110-42 0-47-63-36-110-37v79zm0 115c55-2 124 14 124-45 0-56-70-42-124-44v89" id="aR"/><path fill="#cc4e00" d="M212-179c-10-28-35-45-73-45-59 0-87 40-87 99 0 60 29 101 89 101 43 0 62-24 78-52l27 14C228-24 195 4 139 4 59 4 22-46 18-125c-6-104 99-153 187-111 19 9 31 26 39 46" id="aS"/><path fill="#cc4e00" d="M30 0v-248h33v221h125V0H30" id="aT"/><g id="w"><use transform="matrix(0.06172839506172839,0,0,0.06172839506172839,0,0)" xlink:href="#aR"/><use transform="matrix(0.06172839506172839,0,0,0.06172839506172839,14.814814814814813,0)" xlink:href="#aS"/><use transform="matrix(0.06172839506172839,0,0,0.06172839506172839,30.80246913580247,0)" xlink:href="#aT"/></g><path fill="#cc4e00" d="M30-248c118-7 216 8 213 122C240-48 200 0 122 0H30v-248zM63-27c89 8 146-16 146-99s-60-101-146-95v194" id="aU"/><path fill="#cc4e00" d="M24-231v-30h32v30H24zM24 0v-190h32V0H24" id="aV"/><path fill="#cc4e00" d="M100-194c63 0 86 42 84 106H49c0 40 14 67 53 68 26 1 43-12 49-29l28 8c-11 28-37 45-77 45C44 4 14-33 15-96c1-61 26-98 85-98zm52 81c6-60-76-77-97-28-3 7-6 17-6 28h103" id="aW"/><path fill="#cc4e00" d="M100-194c62-1 85 37 85 99 1 63-27 99-86 99S16-35 15-95c0-66 28-99 85-99zM99-20c44 1 53-31 53-75 0-43-8-75-51-75s-53 32-53 75 10 74 51 75" id="aX"/><path fill="#cc4e00" d="M179-190L93 31C79 59 56 82 12 73V49c39 6 53-20 64-50L1-190h34L92-34l54-156h33" id="aY"/><g id="x"><use transform="matrix(0.06172839506172839,0,0,0.06172839506172839,0,0)" xlink:href="#aU"/><use transform="matrix(0.06172839506172839,0,0,0.06172839506172839,15.987654320987653,0)" xlink:href="#aV"/><use transform="matrix(0.06172839506172839,0,0,0.06172839506172839,20.864197530864196,0)" xlink:href="#aJ"/><use transform="matrix(0.06172839506172839,0,0,0.06172839506172839,28.209876543209873,0)" xlink:href="#aW"/><use transform="matrix(0.06172839506172839,0,0,0.06172839506172839,40.55555555555555,0)" xlink:href="#aL"/><use transform="matrix(0.06172839506172839,0,0,0.06172839506172839,51.66666666666666,0)" xlink:href="#aH"/><use transform="matrix(0.06172839506172839,0,0,0.06172839506172839,57.8395061728395,0)" xlink:href="#aX"/><use transform="matrix(0.06172839506172839,0,0,0.06172839506172839,70.18518518518518,0)" xlink:href="#aJ"/><use transform="matrix(0.06172839506172839,0,0,0.06172839506172839,77.53086419753086,0)" xlink:href="#aY"/></g><path fill="#cc4e00" d="M185-189c-5-48-123-54-124 2 14 75 158 14 163 119 3 78-121 87-175 55-17-10-28-26-33-46l33-7c5 56 141 63 141-1 0-78-155-14-162-118-5-82 145-84 179-34 5 7 8 16 11 25" id="aZ"/><path fill="#cc4e00" d="M210-169c-67 3-38 105-44 169h-31v-121c0-29-5-50-35-48C34-165 62-65 56 0H25l-1-190h30c1 10-1 24 2 32 10-44 99-50 107 0 11-21 27-35 58-36 85-2 47 119 55 194h-31v-121c0-29-5-49-35-48" id="ba"/><path fill="#cc4e00" d="M106-169C34-169 62-67 57 0H25v-261h32l-1 103c12-21 28-36 61-36 89 0 53 116 60 194h-32v-121c2-32-8-49-39-48" id="bb"/><g id="y"><use transform="matrix(0.06172839506172839,0,0,0.06172839506172839,0,0)" xlink:href="#aZ"/><use transform="matrix(0.06172839506172839,0,0,0.06172839506172839,14.814814814814813,0)" xlink:href="#aF"/><use transform="matrix(0.06172839506172839,0,0,0.06172839506172839,27.160493827160494,0)" xlink:href="#ba"/><use transform="matrix(0.06172839506172839,0,0,0.06172839506172839,45.61728395061728,0)" xlink:href="#aQ"/><use transform="matrix(0.06172839506172839,0,0,0.06172839506172839,57.962962962962955,0)" xlink:href="#aK"/><use transform="matrix(0.06172839506172839,0,0,0.06172839506172839,62.8395061728395,0)" xlink:href="#aW"/><use transform="matrix(0.06172839506172839,0,0,0.06172839506172839,75.18518518518518,0)" xlink:href="#aG"/><use transform="matrix(0.06172839506172839,0,0,0.06172839506172839,86.29629629629629,0)" xlink:href="#bb"/><use transform="matrix(0.06172839506172839,0,0,0.06172839506172839,98.64197530864197,0)" xlink:href="#aW"/><use transform="matrix(0.06172839506172839,0,0,0.06172839506172839,110.98765432098766,0)" xlink:href="#aW"/><use transform="matrix(0.06172839506172839,0,0,0.06172839506172839,123.33333333333334,0)" xlink:href="#aH"/></g><path fill="#cc4e00" d="M145-31C134-9 116 4 85 4 32 4 16-35 15-94c0-59 17-99 70-100 32-1 48 14 60 33 0-11-1-24 2-32h30l-1 268h-32zM93-21c41 0 51-33 51-76s-8-73-50-73c-40 0-46 35-46 75s5 74 45 74" id="bc"/><g id="z"><use transform="matrix(0.06172839506172839,0,0,0.06172839506172839,0,0)" xlink:href="#aG"/><use transform="matrix(0.06172839506172839,0,0,0.06172839506172839,11.11111111111111,0)" xlink:href="#aW"/><use transform="matrix(0.06172839506172839,0,0,0.06172839506172839,23.45679012345679,0)" xlink:href="#bc"/><use transform="matrix(0.06172839506172839,0,0,0.06172839506172839,35.80246913580247,0)" xlink:href="#aI"/><use transform="matrix(0.06172839506172839,0,0,0.06172839506172839,48.148148148148145,0)" xlink:href="#aW"/><use transform="matrix(0.06172839506172839,0,0,0.06172839506172839,60.49382716049382,0)" xlink:href="#aN"/><use transform="matrix(0.06172839506172839,0,0,0.06172839506172839,72.8395061728395,0)" xlink:href="#aL"/><use transform="matrix(0.06172839506172839,0,0,0.06172839506172839,83.95061728395062,0)" xlink:href="#aV"/><use transform="matrix(0.06172839506172839,0,0,0.06172839506172839,88.82716049382717,0)" xlink:href="#aN"/><use transform="matrix(0.06172839506172839,0,0,0.06172839506172839,101.17283950617285,0)" xlink:href="#aO"/></g><g id="A"><use transform="matrix(0.06172839506172839,0,0,0.06172839506172839,0,0)" xlink:href="#aL"/><use transform="matrix(0.06172839506172839,0,0,0.06172839506172839,11.11111111111111,0)" xlink:href="#aW"/><use transform="matrix(0.06172839506172839,0,0,0.06172839506172839,23.45679012345679,0)" xlink:href="#aN"/><use transform="matrix(0.06172839506172839,0,0,0.06172839506172839,35.80246913580247,0)" xlink:href="#aH"/><use transform="matrix(0.06172839506172839,0,0,0.06172839506172839,41.97530864197531,0)" xlink:href="#aW"/><use transform="matrix(0.06172839506172839,0,0,0.06172839506172839,54.32098765432099,0)" xlink:href="#aJ"/></g><g id="B"><use transform="matrix(0.06172839506172839,0,0,0.06172839506172839,0,0)" xlink:href="#aH"/><use transform="matrix(0.06172839506172839,0,0,0.06172839506172839,6.172839506172839,0)" xlink:href="#bb"/><use transform="matrix(0.06172839506172839,0,0,0.06172839506172839,18.51851851851852,0)" xlink:href="#aJ"/><use transform="matrix(0.06172839506172839,0,0,0.06172839506172839,25.864197530864196,0)" xlink:href="#aW"/><use transform="matrix(0.06172839506172839,0,0,0.06172839506172839,38.20987654320987,0)" xlink:href="#aF"/><use transform="matrix(0.06172839506172839,0,0,0.06172839506172839,50.55555555555555,0)" xlink:href="#aM"/></g><g id="C"><use transform="matrix(0.06172839506172839,0,0,0.06172839506172839,0,0)" xlink:href="#aL"/><use transform="matrix(0.06172839506172839,0,0,0.06172839506172839,11.11111111111111,0)" xlink:href="#aX"/><use transform="matrix(0.06172839506172839,0,0,0.06172839506172839,23.45679012345679,0)" xlink:href="#aI"/><use transform="matrix(0.06172839506172839,0,0,0.06172839506172839,35.80246913580247,0)" xlink:href="#aN"/><use transform="matrix(0.06172839506172839,0,0,0.06172839506172839,48.148148148148145,0)" xlink:href="#aH"/></g><path fill="#cc4e00" d="M140-251c81 0 123 46 123 126C263-46 219 4 140 4 59 4 17-45 17-125s42-126 123-126zm0 227c63 0 89-41 89-101s-29-99-89-99c-61 0-89 39-89 99S79-25 140-24" id="bd"/><g id="D"><use transform="matrix(0.06172839506172839,0,0,0.06172839506172839,0,0)" xlink:href="#bd"/><use transform="matrix(0.06172839506172839,0,0,0.06172839506172839,17.28395061728395,0)" xlink:href="#aN"/><use transform="matrix(0.06172839506172839,0,0,0.06172839506172839,29.629629629629626,0)" xlink:href="#aW"/></g><g id="E"><use transform="matrix(0.06172839506172839,0,0,0.06172839506172839,0,0)" xlink:href="#aX"/><use transform="matrix(0.06172839506172839,0,0,0.06172839506172839,12.345679012345679,0)" xlink:href="#aJ"/></g><g id="F"><use transform="matrix(0.06172839506172839,0,0,0.06172839506172839,0,0)" xlink:href="#ba"/><use transform="matrix(0.06172839506172839,0,0,0.06172839506172839,18.456790123456788,0)" xlink:href="#aX"/><use transform="matrix(0.06172839506172839,0,0,0.06172839506172839,30.80246913580247,0)" xlink:href="#aJ"/><use transform="matrix(0.06172839506172839,0,0,0.06172839506172839,38.148148148148145,0)" xlink:href="#aW"/></g><path fill="#cc4e00" d="M63-220v92h138v28H63V0H30v-248h175v28H63" id="be"/><path fill="#cc4e00" d="M205 0l-28-72H64L36 0H1l101-248h38L239 0h-34zm-38-99l-47-123c-12 45-31 82-46 123h93" id="bf"/><path fill="#cc4e00" d="M127-220V0H93v-220H8v-28h204v28h-85" id="bg"/><path fill="#cc4e00" d="M140-251c81 0 123 46 123 126C263-53 228-8 163 1c7 30 30 48 69 40v23c-55 16-95-15-103-61C56-3 17-48 17-125c0-80 42-126 123-126zm0 227c63 0 89-41 89-101s-29-99-89-99c-61 0-89 39-89 99S79-25 140-24" id="bh"/><g id="G"><use transform="matrix(0.06172839506172839,0,0,0.06172839506172839,0,0)" xlink:href="#be"/><use transform="matrix(0.06172839506172839,0,0,0.06172839506172839,12.28395061728395,0)" xlink:href="#bf"/><use transform="matrix(0.06172839506172839,0,0,0.06172839506172839,27.098765432098762,0)" xlink:href="#aZ"/><use transform="matrix(0.06172839506172839,0,0,0.06172839506172839,41.913580246913575,0)" xlink:href="#bg"/><use transform="matrix(0.06172839506172839,0,0,0.06172839506172839,55.432098765432094,0)" xlink:href="#bh"/></g><g id="H"><use transform="matrix(0.06172839506172839,0,0,0.06172839506172839,0,0)" xlink:href="#aQ"/><use transform="matrix(0.06172839506172839,0,0,0.06172839506172839,12.345679012345679,0)" xlink:href="#aF"/><use transform="matrix(0.06172839506172839,0,0,0.06172839506172839,24.691358024691358,0)" xlink:href="#aV"/><use transform="matrix(0.06172839506172839,0,0,0.06172839506172839,29.5679012345679,0)" xlink:href="#aJ"/><use transform="matrix(0.06172839506172839,0,0,0.06172839506172839,36.913580246913575,0)" xlink:href="#aG"/></g><path fill="#1071e5" d="M160-131c35 5 61 23 61 61C221 17 115-2 30 0v-248c76 3 177-17 177 60 0 33-19 50-47 57zm-97-11c50-1 110 9 110-42 0-47-63-36-110-37v79zm0 115c55-2 124 14 124-45 0-56-70-42-124-44v89" id="bi"/><path fill="#1071e5" d="M205 0l-28-72H64L36 0H1l101-248h38L239 0h-34zm-38-99l-47-123c-12 45-31 82-46 123h93" id="bj"/><path fill="#1071e5" d="M240 0l2-218c-23 76-54 145-80 218h-23L58-218 59 0H30v-248h44l77 211c21-75 51-140 76-211h43V0h-30" id="bk"/><g id="I"><use transform="matrix(0.06172839506172839,0,0,0.06172839506172839,0,0)" xlink:href="#bi"/><use transform="matrix(0.06172839506172839,0,0,0.06172839506172839,14.814814814814813,0)" xlink:href="#bj"/><use transform="matrix(0.06172839506172839,0,0,0.06172839506172839,29.629629629629626,0)" xlink:href="#bk"/></g><path fill="#1071e5" d="M137 0h-34L2-248h35l83 218 83-218h36" id="bl"/><path fill="#1071e5" d="M212-179c-10-28-35-45-73-45-59 0-87 40-87 99 0 60 29 101 89 101 43 0 62-24 78-52l27 14C228-24 195 4 139 4 59 4 22-46 18-125c-6-104 99-153 187-111 19 9 31 26 39 46" id="bm"/><path fill="#1071e5" d="M63-220v92h138v28H63V0H30v-248h175v28H63" id="bn"/><g id="J"><use transform="matrix(0.06172839506172839,0,0,0.06172839506172839,0,0)" xlink:href="#bl"/><use transform="matrix(0.06172839506172839,0,0,0.06172839506172839,14.814814814814813,0)" xlink:href="#bm"/><use transform="matrix(0.06172839506172839,0,0,0.06172839506172839,30.80246913580247,0)" xlink:href="#bn"/></g><path fill="#1071e5" d="M210-169c-67 3-38 105-44 169h-31v-121c0-29-5-50-35-48C34-165 62-65 56 0H25l-1-190h30c1 10-1 24 2 32 10-44 99-50 107 0 11-21 27-35 58-36 85-2 47 119 55 194h-31v-121c0-29-5-49-35-48" id="bo"/><path fill="#1071e5" d="M100-194c63 0 86 42 84 106H49c0 40 14 67 53 68 26 1 43-12 49-29l28 8c-11 28-37 45-77 45C44 4 14-33 15-96c1-61 26-98 85-98zm52 81c6-60-76-77-97-28-3 7-6 17-6 28h103" id="bp"/><path fill="#1071e5" d="M59-47c-2 24 18 29 38 22v24C64 9 27 4 27-40v-127H5v-23h24l9-43h21v43h35v23H59v120" id="bq"/><path fill="#1071e5" d="M114-163C36-179 61-72 57 0H25l-1-190h30c1 12-1 29 2 39 6-27 23-49 58-41v29" id="br"/><path fill="#1071e5" d="M24-231v-30h32v30H24zM24 0v-190h32V0H24" id="bs"/><path fill="#1071e5" d="M96-169c-40 0-48 33-48 73s9 75 48 75c24 0 41-14 43-38l32 2c-6 37-31 61-74 61-59 0-76-41-82-99-10-93 101-131 147-64 4 7 5 14 7 22l-32 3c-4-21-16-35-41-35" id="bt"/><path fill="#1071e5" d="M135-143c-3-34-86-38-87 0 15 53 115 12 119 90S17 21 10-45l28-5c4 36 97 45 98 0-10-56-113-15-118-90-4-57 82-63 122-42 12 7 21 19 24 35" id="bu"/><g id="K"><use transform="matrix(0.06172839506172839,0,0,0.06172839506172839,0,0)" xlink:href="#bo"/><use transform="matrix(0.06172839506172839,0,0,0.06172839506172839,18.456790123456788,0)" xlink:href="#bp"/><use transform="matrix(0.06172839506172839,0,0,0.06172839506172839,30.80246913580247,0)" xlink:href="#bq"/><use transform="matrix(0.06172839506172839,0,0,0.06172839506172839,36.97530864197531,0)" xlink:href="#br"/><use transform="matrix(0.06172839506172839,0,0,0.06172839506172839,44.32098765432099,0)" xlink:href="#bs"/><use transform="matrix(0.06172839506172839,0,0,0.06172839506172839,49.19753086419753,0)" xlink:href="#bt"/><use transform="matrix(0.06172839506172839,0,0,0.06172839506172839,60.308641975308646,0)" xlink:href="#bu"/></g><path fill="#1071e5" d="M141-36C126-15 110 5 73 4 37 3 15-17 15-53c-1-64 63-63 125-63 3-35-9-54-41-54-24 1-41 7-42 31l-33-3c5-37 33-52 76-52 45 0 72 20 72 64v82c-1 20 7 32 28 27v20c-31 9-61-2-59-35zM48-53c0 20 12 33 32 33 41-3 63-29 60-74-43 2-92-5-92 41" id="bv"/><g id="L"><use transform="matrix(0.06172839506172839,0,0,0.06172839506172839,0,0)" xlink:href="#bq"/><use transform="matrix(0.06172839506172839,0,0,0.06172839506172839,6.172839506172839,0)" xlink:href="#bv"/><use transform="matrix(0.06172839506172839,0,0,0.06172839506172839,18.51851851851852,0)" xlink:href="#br"/></g><path fill="#1071e5" d="M145-31C134-9 116 4 85 4 32 4 16-35 15-94c0-59 17-99 70-100 32-1 48 14 60 33 0-11-1-24 2-32h30l-1 268h-32zM93-21c41 0 51-33 51-76s-8-73-50-73c-40 0-46 35-46 75s5 74 45 74" id="bw"/><path fill="#1071e5" d="M24 0v-261h32V0H24" id="bx"/><g id="M"><use transform="matrix(0.06172839506172839,0,0,0.06172839506172839,0,0)" xlink:href="#bu"/><use transform="matrix(0.06172839506172839,0,0,0.06172839506172839,11.11111111111111,0)" xlink:href="#bw"/><use transform="matrix(0.06172839506172839,0,0,0.06172839506172839,23.45679012345679,0)" xlink:href="#bx"/><use transform="matrix(0.06172839506172839,0,0,0.06172839506172839,28.333333333333336,0)" xlink:href="#bs"/><use transform="matrix(0.06172839506172839,0,0,0.06172839506172839,33.20987654320988,0)" xlink:href="#bq"/><use transform="matrix(0.06172839506172839,0,0,0.06172839506172839,39.38271604938272,0)" xlink:href="#bp"/></g><path fill="#1071e5" d="M84 4C-5 8 30-112 23-190h32v120c0 31 7 50 39 49 72-2 45-101 50-169h31l1 190h-30c-1-10 1-25-2-33-11 22-28 36-60 37" id="by"/><path fill="#1071e5" d="M140-251c81 0 123 46 123 126C263-53 228-8 163 1c7 30 30 48 69 40v23c-55 16-95-15-103-61C56-3 17-48 17-125c0-80 42-126 123-126zm0 227c63 0 89-41 89-101s-29-99-89-99c-61 0-89 39-89 99S79-25 140-24" id="bz"/><g id="N"><use transform="matrix(0.06172839506172839,0,0,0.06172839506172839,0,0)" xlink:href="#bk"/><use transform="matrix(0.06172839506172839,0,0,0.06172839506172839,18.456790123456788,0)" xlink:href="#by"/><use transform="matrix(0.06172839506172839,0,0,0.06172839506172839,30.80246913580247,0)" xlink:href="#bx"/><use transform="matrix(0.06172839506172839,0,0,0.06172839506172839,35.67901234567901,0)" xlink:href="#bq"/><use transform="matrix(0.06172839506172839,0,0,0.06172839506172839,41.851851851851855,0)" xlink:href="#bs"/><use transform="matrix(0.06172839506172839,0,0,0.06172839506172839,46.7283950617284,0)" xlink:href="#bz"/><use transform="matrix(0.06172839506172839,0,0,0.06172839506172839,64.01234567901236,0)" xlink:href="#bm"/></g><path fill="#1071e5" d="M106-169C34-169 62-67 57 0H25v-261h32l-1 103c12-21 28-36 61-36 89 0 53 116 60 194h-32v-121c2-32-8-49-39-48" id="bA"/><g id="O"><use transform="matrix(0.06172839506172839,0,0,0.06172839506172839,0,0)" xlink:href="#bA"/><use transform="matrix(0.06172839506172839,0,0,0.06172839506172839,12.345679012345679,0)" xlink:href="#bq"/><use transform="matrix(0.06172839506172839,0,0,0.06172839506172839,18.51851851851852,0)" xlink:href="#bo"/><use transform="matrix(0.06172839506172839,0,0,0.06172839506172839,36.9753086419753,0)" xlink:href="#bx"/></g><path fill="#1071e5" d="M101-234c-31-9-42 10-38 44h38v23H63V0H32v-167H5v-23h27c-7-52 17-82 69-68v24" id="bB"/><path fill="#1071e5" d="M100-194c62-1 85 37 85 99 1 63-27 99-86 99S16-35 15-95c0-66 28-99 85-99zM99-20c44 1 53-31 53-75 0-43-8-75-51-75s-53 32-53 75 10 74 51 75" id="bC"/><path fill="#1071e5" d="M117-194c89-4 53 116 60 194h-32v-121c0-31-8-49-39-48C34-167 62-67 57 0H25l-1-190h30c1 10-1 24 2 32 11-22 29-35 61-36" id="bD"/><g id="P"><use transform="matrix(0.06172839506172839,0,0,0.06172839506172839,0,0)" xlink:href="#bB"/><use transform="matrix(0.06172839506172839,0,0,0.06172839506172839,6.172839506172839,0)" xlink:href="#bp"/><use transform="matrix(0.06172839506172839,0,0,0.06172839506172839,18.51851851851852,0)" xlink:href="#bv"/><use transform="matrix(0.06172839506172839,0,0,0.06172839506172839,30.864197530864196,0)" xlink:href="#bq"/><use transform="matrix(0.06172839506172839,0,0,0.06172839506172839,37.03703703703704,0)" xlink:href="#by"/><use transform="matrix(0.06172839506172839,0,0,0.06172839506172839,49.382716049382715,0)" xlink:href="#br"/><use transform="matrix(0.06172839506172839,0,0,0.06172839506172839,56.72839506172839,0)" xlink:href="#bp"/><use transform="matrix(0.06172839506172839,0,0,0.06172839506172839,69.07407407407408,0)" xlink:href="#bm"/><use transform="matrix(0.06172839506172839,0,0,0.06172839506172839,85.06172839506173,0)" xlink:href="#bC"/><use transform="matrix(0.06172839506172839,0,0,0.06172839506172839,97.40740740740742,0)" xlink:href="#by"/><use transform="matrix(0.06172839506172839,0,0,0.06172839506172839,109.7530864197531,0)" xlink:href="#bD"/><use transform="matrix(0.06172839506172839,0,0,0.06172839506172839,122.09876543209879,0)" xlink:href="#bq"/><use transform="matrix(0.06172839506172839,0,0,0.06172839506172839,128.27160493827162,0)" xlink:href="#bu"/></g><g id="Q"><use transform="matrix(0.06172839506172839,0,0,0.06172839506172839,0,0)" xlink:href="#bp"/><use transform="matrix(0.06172839506172839,0,0,0.06172839506172839,12.345679012345679,0)" xlink:href="#bD"/><use transform="matrix(0.06172839506172839,0,0,0.06172839506172839,24.691358024691358,0)" xlink:href="#bu"/><use transform="matrix(0.06172839506172839,0,0,0.06172839506172839,35.80246913580247,0)" xlink:href="#bp"/></g><path fill="#1071e5" d="M108 0H70L1-190h34L89-25l56-165h34" id="bE"/><g id="R"><use transform="matrix(0.06172839506172839,0,0,0.06172839506172839,0,0)" xlink:href="#bq"/><use transform="matrix(0.06172839506172839,0,0,0.06172839506172839,6.172839506172839,0)" xlink:href="#bu"/><use transform="matrix(0.06172839506172839,0,0,0.06172839506172839,17.28395061728395,0)" xlink:href="#bE"/></g><path fill="#1071e5" d="M177-190C167-65 218 103 67 71c-23-6-38-20-44-43l32-5c15 47 100 32 89-28v-30C133-14 115 1 83 1 29 1 15-40 15-95c0-56 16-97 71-98 29-1 48 16 59 35 1-10 0-23 2-32h30zM94-22c36 0 50-32 50-73 0-42-14-75-50-75-39 0-46 34-46 75s6 73 46 73" id="bF"/><g id="S"><use transform="matrix(0.06172839506172839,0,0,0.06172839506172839,0,0)" xlink:href="#bp"/><use transform="matrix(0.06172839506172839,0,0,0.06172839506172839,12.345679012345679,0)" xlink:href="#bD"/><use transform="matrix(0.06172839506172839,0,0,0.06172839506172839,24.691358024691358,0)" xlink:href="#bu"/><use transform="matrix(0.06172839506172839,0,0,0.06172839506172839,35.80246913580247,0)" xlink:href="#bF"/></g><g id="T"><use transform="matrix(0.06172839506172839,0,0,0.06172839506172839,0,0)" xlink:href="#bp"/><use transform="matrix(0.06172839506172839,0,0,0.06172839506172839,12.345679012345679,0)" xlink:href="#bD"/><use transform="matrix(0.06172839506172839,0,0,0.06172839506172839,24.691358024691358,0)" xlink:href="#bu"/><use transform="matrix(0.06172839506172839,0,0,0.06172839506172839,35.80246913580247,0)" xlink:href="#bq"/></g><path fill="#1071e5" d="M127-220V0H93v-220H8v-28h204v28h-85" id="bG"/><path fill="#1071e5" d="M30-248c87 1 191-15 191 75 0 78-77 80-158 76V0H30v-248zm33 125c57 0 124 11 124-50 0-59-68-47-124-48v98" id="bH"/><g id="U"><use transform="matrix(0.06172839506172839,0,0,0.06172839506172839,0,0)" xlink:href="#bG"/><use transform="matrix(0.06172839506172839,0,0,0.06172839506172839,13.518518518518517,0)" xlink:href="#bH"/><use transform="matrix(0.06172839506172839,0,0,0.06172839506172839,28.33333333333333,0)" xlink:href="#bk"/></g></defs></g></svg>